<?xml version="1.0" encoding="utf-8"?>
<!-- Generator: Adobe Illustrator 16.0.4, SVG Export Plug-In . SVG Version: 6.00 Build 0)  -->
<!DOCTYPE svg PUBLIC "-//W3C//DTD SVG 1.1//EN" "http://www.w3.org/Graphics/SVG/1.1/DTD/svg11.dtd">
<svg version="1.1" id="Layer_1" xmlns="http://www.w3.org/2000/svg" xmlns:xlink="http://www.w3.org/1999/xlink" x="0px" y="0px"
	 width="122.998px" height="32.5px" viewBox="0 0 122.998 32.5" enable-background="new 0 0 122.998 32.5" xml:space="preserve">
<g>
	<g>
		<g>
			<g>
				<g>
					<g>
						<g>
							<path fill="#FFFFFF" d="M52.661,20.042c0,7.158,5.058,12.156,12.298,12.156c3.797,0,8.623-2.55,10.183-7.281l-5.166-0.021
								c-1.004,1.875-2.707,2.871-4.925,2.877c-3.479,0-5.882-1.934-6.613-5.301l-0.156-0.725h17.355
								c0.022-0.4,0.051-0.852,0.051-1.248c0-5.903-2.99-12.799-11.42-12.799c-6.617,0-11.606,5.265-11.606,12.249L52.661,20.042
								L52.661,20.042z M58.34,17.868c0.626-3.596,2.84-5.742,5.927-5.742c3.15,0,5.314,2.157,5.789,5.763l0.021,0.154
								l-11.765-0.021L58.34,17.868z"/>
							<g>
								<g>
									<g>
										<path fill="#FFFFFF" d="M11.848,0C5.204,0,0,5.15,0,11.729c0,6.307,5.311,11.639,11.603,11.639
											c6.464,0,11.724-5.222,11.724-11.639C23.327,5.261,18.178,0,11.848,0z M11.603,18.807c-3.818,0-6.921-3.176-6.921-7.078
											c0-1.953,0.688-3.671,1.994-4.976c1.241-1.328,3.176-2.195,4.927-2.195c3.948,0,7.04,3.148,7.04,7.171
											C18.643,15.761,15.618,18.807,11.603,18.807z"/>
										<path fill="#FFFFFF" d="M11.667,24.924c-4.498,0-8.579,2.727-10.317,6.84h20.634C20.238,27.65,16.16,24.924,11.667,24.924
											z"/>
										<path fill="#FFFFFF" d="M51.317,16.036c0-4.718-2.141-9.558-5.449-12.342C42.134,0.52,37.222,0.042,32.464,0h-6.443
											v31.764h6.58c4.547,0,9.321-0.285,13.264-3.647C49.23,25.252,51.317,20.625,51.317,16.036z M41.984,24.391
											c-2.874,2.105-6.028,2.275-9.563,2.275h-1.125V5.093h0.819c3.429,0,6.724,0.155,9.455,2.005
											c2.803,1.927,4.478,5.271,4.478,8.938C46.047,19.352,44.565,22.396,41.984,24.391z"/>
										<g>
											<rect x="97.589" fill="#FFFFFF" width="5.096" height="31.764"/>
											<polygon fill="#FFFFFF" points="118.455,31.764 108.524,19.702 117.056,8.137 111.099,8.137 102.998,20.018 
												111.617,31.764 											"/>
										</g>
										<path fill="#FFFFFF" d="M92.679,20.1c-1.433-1.078-3.271-1.74-5.041-2.291l-0.473-0.149c-2.63-0.845-4.9-1.574-4.9-3.169
											v-0.091c0-1.435,1.301-2.361,3.313-2.361c2.054,0,4.144,0.662,6.394,2.029l0.032,0.02l2.679-3.636l-0.037-0.024
											C92,8.679,88.58,7.593,85.717,7.593c-5.049,0-8.573,3.023-8.573,7.349v0.092c0,4.571,3.881,6.044,7.521,7.073
											c0.187,0.06,0.372,0.115,0.56,0.172c2.561,0.773,4.766,1.441,4.766,3.146v0.092c0,1.594-1.377,2.545-3.678,2.545
											c-2.533,0-5.313-1.045-7.826-2.94l-0.039-0.026L75.86,28.79l-0.022,0.03l0.03,0.025c2.904,2.287,6.761,3.654,10.304,3.654
											c5.511,0,8.938-2.9,8.938-7.576v-0.09C95.106,22.877,94.312,21.329,92.679,20.1z"/>
									</g>
								</g>
							</g>
						</g>
					</g>
					<g>
						<g>
							<path fill="#FFFFFF" d="M120.705,7.08c1.248,0,2.293,0.979,2.293,2.262c0,1.308-1.045,2.287-2.293,2.287
								c-1.244,0-2.289-0.979-2.289-2.262C118.416,8.059,119.461,7.08,120.705,7.08z M120.705,11.296
								c1.071,0,1.925-0.842,1.925-1.955c0-1.093-0.854-1.931-1.925-1.931c-1.065,0-1.924,0.838-1.924,1.956
								C118.781,10.454,119.64,11.296,120.705,11.296z M119.856,8.052h0.965c0.629,0,0.929,0.233,0.929,0.758
								c0,0.471-0.304,0.672-0.694,0.716l0.756,1.16h-0.396l-0.722-1.13h-0.469v1.13h-0.367V8.052H119.856z M120.226,9.227h0.45
								c0.368,0,0.709-0.019,0.709-0.434c0-0.367-0.312-0.411-0.594-0.411h-0.565V9.227L120.226,9.227z"/>
						</g>
					</g>
				</g>
			</g>
		</g>
	</g>
</g>
</svg>
