<?xml version="1.0" encoding="UTF-8" standalone="no"?>
<!-- Created with Inkscape (http://www.inkscape.org/) -->

<svg
   xmlns:dc="http://purl.org/dc/elements/1.1/"
   xmlns:cc="http://creativecommons.org/ns#"
   xmlns:rdf="http://www.w3.org/1999/02/22-rdf-syntax-ns#"
   xmlns:svg="http://www.w3.org/2000/svg"
   xmlns="http://www.w3.org/2000/svg"
   version="1.1"
   width="42"
   height="108"
   id="svg2">
  <defs
     id="defs4" />
  <metadata
     id="metadata7">
    <rdf:RDF>
      <cc:Work
         rdf:about="">
        <dc:format>image/svg+xml</dc:format>
        <dc:type
           rdf:resource="http://purl.org/dc/dcmitype/StillImage" />
        <dc:title></dc:title>
      </cc:Work>
    </rdf:RDF>
  </metadata>
  <g
     transform="translate(-581.54823,-244.77129)"
     id="layer1">
    <g
       transform="translate(0.17218391,0)"
       id="g3066">
      <g
         transform="matrix(1.0354051,0,0,1.0354051,584.40711,316.77129)"
         id="g3039"
         style="fill:#ffffff">
        <path
           d="M 17.261,34.769 C 26.883,34.769 34.709,27 34.709,17.451 34.709,7.827 27.047,0 17.626,0 7.74,0 0,7.663 0,17.45 0,26.831 7.903,34.769 17.261,34.769 z M 9.932,10.048 C 11.78,8.07 14.659,6.78 17.261,6.78 c 5.878,0 10.481,4.686 10.481,10.67 0,6.003 -4.505,10.534 -10.481,10.534 -5.679,0 -10.297,-4.727 -10.297,-10.534 0,-2.904 1.023,-5.462 2.968,-7.402 z"
           id="path3025"
           style="fill:#ffffff" />
        <g
           id="g3027"
           style="fill:#ffffff">
          <line
             style="fill:#ffffff;stroke:#ffffff;stroke-width:2;stroke-linecap:round;stroke-linejoin:round;stroke-miterlimit:10"
             x1="17.363001"
             y1="9.8739996"
             x2="17.363001"
             y2="17.6"
             id="line3029" />
          <line
             style="fill:#ffffff;stroke:#ffffff;stroke-width:2;stroke-linecap:round;stroke-linejoin:round;stroke-miterlimit:10"
             x1="17.5"
             y1="17.674"
             x2="22.738001"
             y2="17.674"
             id="line3031" />
        </g>
      </g>
      <path
         d="m 596.92303,276.83871 c -0.41819,1.48388 -2.4485,3.51369 -3.93189,3.93238 h 18.76932 c -1.43162,-0.37035 -3.56203,-2.49879 -3.93239,-3.93238 h -10.90504 z m 22.35402,-32.06762 h -33.803 c -1.28959,0 -2.3331,1.04548 -2.3331,2.33408 v 25.07523 c 0,1.28909 1.04351,2.33409 2.3331,2.33409 h 33.803 c 1.2891,0 2.3341,-1.045 2.3341,-2.33409 v -25.07523 c 0,-1.2886 -1.04451,-2.33408 -2.3341,-2.33408 z m -1.59731,22.20262 h -30.60789 v -18.26974 h 30.60789 v 18.26974 l 0,0 z"
         id="computer-3-icon"
         style="fill:#ffffff" />
      <g
         transform="matrix(0.49312366,0,0,0.49312366,582.65036,280.44524)"
         id="g3015"
         style="fill:#ffffff">
        <path
           d="m 32.554,50.886 c -1.525,-1.555 -3.291,-2.844 -5.225,-3.83 1.423,1.651 3.203,2.977 5.225,3.83"
           id="path2995"
           style="fill:#ffffff" />
        <path
           d="M 15.178,45.082 C 8.393,46.142 2.504,50.664 -0.208,57.065 H 24.37 C 20.168,54.164 16.906,49.951 15.178,45.082"
           id="path2997"
           style="fill:#ffffff" />
        <path
           d="m 50.006,16.313 c 0.593,-1.321 1.404,-2.528 2.458,-3.581 2.221,-2.374 5.681,-3.924 8.809,-3.924 7.062,0 12.589,5.628 12.589,12.818 0,7.133 -5.292,12.524 -12.353,12.644 0.107,0.937 0.182,1.882 0.182,2.848 0,1.824 -0.228,3.594 -0.613,5.305 0.063,0 0.132,0.012 0.195,0.012 11.561,0.002 20.965,-9.333 20.965,-20.809 0,-11.561 -9.212,-20.964 -20.524,-20.964 -8.896,0 -16.335,5.16 -19.521,12.687 2.803,0.514 5.436,1.533 7.813,2.964"
           id="path2999"
           style="fill:#ffffff" />
        <path
           d="m 37.325,50.501 c -6.818,0 -12.37,-5.68 -12.37,-12.658 0,-3.488 1.229,-6.561 3.564,-8.89 2.223,-2.377 5.679,-3.927 8.805,-3.927 7.062,0 12.595,5.628 12.595,12.817 0.001,7.215 -5.411,12.658 -12.594,12.658 m 0.442,-33.623 c -11.876,0 -21.179,9.208 -21.179,20.965 0,11.273 9.494,20.809 20.735,20.809 11.561,0 20.966,-9.33 20.966,-20.809 0.002,-11.56 -9.204,-20.965 -20.522,-20.965"
           id="path3001"
           style="fill:#ffffff" />
        <path
           d="m 37.442,61.437 c -8.039,0 -15.336,4.875 -18.441,12.228 H 55.892 C 52.771,66.312 45.479,61.437 37.442,61.437"
           id="path3003"
           style="fill:#ffffff" />
        <path
           d="m 14.13,41.935 c -0.332,-1.562 -0.512,-3.174 -0.512,-4.812 0,-1.281 0.125,-2.525 0.308,-3.744 -4.561,-1.865 -7.795,-6.424 -7.795,-11.748 0,-3.488 1.229,-6.562 3.562,-8.893 2.224,-2.376 5.684,-3.927 8.81,-3.927 4.49,0 8.354,2.28 10.579,5.786 2.637,-1 5.508,-1.574 8.534,-1.619 C 34.381,5.722 27.238,0.661 18.943,0.661 c -11.878,0 -21.178,9.207 -21.178,20.966 0,9.771 7.14,18.227 16.365,20.308"
           id="path3005"
           style="fill:#ffffff" />
        <path
           d="m 60.558,45.06 c -1.737,5.021 -5.086,9.299 -9.456,12.193 H 79.83 C 76.711,49.901 69.42,45.026 61.383,45.026 c -0.279,0 -0.551,0.024 -0.825,0.034"
           id="path3007"
           style="fill:#ffffff" />
      </g>
    </g>
  </g>
</svg>
