<?xml version="1.0" encoding="utf-8"?>
<!-- Generator: Adobe Illustrator 16.0.4, SVG Export Plug-In . SVG Version: 6.00 Build 0)  -->
<!DOCTYPE svg PUBLIC "-//W3C//DTD SVG 1.1//EN" "http://www.w3.org/Graphics/SVG/1.1/DTD/svg11.dtd">
<svg version="1.1" id="Layer_1" xmlns="http://www.w3.org/2000/svg" xmlns:xlink="http://www.w3.org/1999/xlink" x="0px" y="0px"
	 width="75.001px" height="75px" viewBox="0 0 75.001 75" style="enable-background:new 0 0 75.001 75;" xml:space="preserve">
<g>
	<path style="fill:#E3E3E3;" d="M37.5,75C16.798,75,0,58.203,0,37.5C0,16.797,16.798,0,37.5,0c20.704,0,37.5,16.797,37.5,37.5
		C75.001,58.203,58.204,75,37.5,75z M10.938,37.5c0,14.648,11.914,26.562,26.562,26.562S64.062,52.148,64.062,37.5
		S52.149,10.937,37.5,10.937S10.938,22.851,10.938,37.5z M54.199,40.234L38.624,55.81c-0.342,0.293-0.732,0.439-1.123,0.439
		s-0.782-0.146-1.123-0.439L20.752,40.185c-0.439-0.488-0.585-1.124-0.342-1.709c0.244-0.587,0.83-0.977,1.465-0.977h9.375V20.312
		c0-0.879,0.684-1.562,1.562-1.562h9.375c0.878,0,1.563,0.684,1.563,1.562V37.5h9.374c0.879,0,1.563,0.684,1.563,1.562
		C54.688,39.501,54.493,39.892,54.199,40.234z"/>
</g>
</svg>
