<?xml version="1.0" encoding="utf-8"?>
<!-- Generator: Adobe Illustrator 16.0.4, SVG Export Plug-In . SVG Version: 6.00 Build 0)  -->
<!DOCTYPE svg PUBLIC "-//W3C//DTD SVG 1.1//EN" "http://www.w3.org/Graphics/SVG/1.1/DTD/svg11.dtd">
<svg version="1.1" id="Layer_1" xmlns="http://www.w3.org/2000/svg" xmlns:xlink="http://www.w3.org/1999/xlink" x="0px" y="0px"
	 width="97px" height="49.359px" viewBox="244.521 164.181 97 49.359" enable-background="new 244.521 164.181 97 49.359"
	 xml:space="preserve">
<g opacity="0.8">
	<path fill="#373737" d="M259.227,209.09c-2.479,0-4.129-1.901-4.129-4.055v-9.001c0-2.103,1.65-4.057,4.129-4.057
		c2.453,0,4.057,1.954,4.057,4.057v9.001C263.283,207.188,261.654,209.09,259.227,209.09 M261.404,196.033
		c0-1.127-0.777-2.28-2.203-2.28c-1.378,0-2.202,1.152-2.202,2.28v9.001c0,1.125,0.853,2.279,2.228,2.279
		c1.4,0,2.178-1.154,2.178-2.279V196.033L261.404,196.033z"/>
	<path fill="#373737" d="M270.589,209.09c-0.974,0-1.524-0.25-1.927-0.449c-0.176-0.075-0.301,0.024-0.301,0.199v4.375
		c0,0.176-0.152,0.326-0.301,0.326h-1.299c-0.179,0-0.304-0.15-0.304-0.326V201.08c0-2.155,1.706-4.056,4.131-4.056
		c2.429,0,4.058,1.928,4.058,4.056v3.954C274.646,207.139,273.068,209.09,270.589,209.09 M272.77,201.081
		c0-1.127-0.776-2.28-2.181-2.28c-1.403,0-2.228,1.153-2.228,2.28v3.954c0,1.125,0.824,2.279,2.203,2.279
		c1.429,0,2.205-1.154,2.205-2.279V201.081L272.77,201.081z"/>
	<path fill="#373737" d="M285.136,203.882h-5.382c-0.175,0-0.324,0.15-0.324,0.327v0.826c0,1.125,0.85,2.278,2.228,2.278
		c1.399,0,2.153-1.052,2.553-1.626c0.103-0.152,0.3-0.178,0.426-0.103l0.826,0.574c0.326,0.229,0.25,0.402,0.201,0.528
		c-0.353,0.699-1.579,2.401-4.007,2.401c-2.48,0-4.129-1.901-4.129-4.055v-3.954c0-2.104,1.648-4.056,4.129-4.056
		c2.453,0,4.056,1.952,4.056,4.056v2.226C285.712,203.606,285.412,203.882,285.136,203.882 M279.43,201.081v0.825
		c0,0.176,0.149,0.325,0.324,0.325h3.753c0.175,0,0.326-0.149,0.326-0.325v-0.825c0-1.127-0.776-2.28-2.202-2.28
		C280.253,198.8,279.43,199.953,279.43,201.081z"/>
	<path fill="#373737" d="M296.557,208.84h-1.201c-0.178,0-0.353-0.152-0.353-0.325v-7.435c0-1.127-0.774-2.28-2.202-2.28
		c-1.376,0-2.205,1.153-2.205,2.28v7.435c0,0.173-0.174,0.325-0.326,0.325h-1.225c-0.174,0-0.35-0.1-0.35-0.325v-10.916
		c0-0.177,0.123-0.326,0.301-0.326h1.078c0.369,0,0.322,0.502,0.574,0.351c0.648-0.398,1.399-0.6,2.174-0.6
		c2.457,0,4.058,1.952,4.058,4.057v7.435C296.879,208.688,296.707,208.84,296.557,208.84z"/>
	<path fill="#373737" d="M305.799,194.07h-2.48c-0.176,0-0.325,0.173-0.325,0.349v14.097c0,0.173-0.177,0.325-0.349,0.325h-1.226
		c-0.151,0-0.328-0.152-0.328-0.325v-14.121c0-0.176-0.175-0.324-0.325-0.324h-2.527c-0.176,0-0.326-0.176-0.326-0.352v-1.025
		c0-0.15,0.15-0.325,0.326-0.325h7.562c0.173,0,0.323,0.174,0.323,0.325v1.025C306.122,193.894,305.973,194.07,305.799,194.07z"/>
	<path fill="#373737" d="M330.041,192.399h-1.227c-0.153,0-0.324,0.15-0.324,0.326v15.79c0,0.173,0.171,0.325,0.324,0.325h1.227
		c0.173,0,0.352-0.152,0.352-0.325v-15.79C330.393,192.551,330.214,192.399,330.041,192.399z"/>
	<path fill="#373737" d="M313.957,208.84h-1.075c-0.378,0-0.228-0.576-0.626-0.301c0,0-0.729,0.55-2.052,0.55
		c-2.328,0-4.13-1.776-4.13-4.055c0-2.378,1.802-4.055,4.13-4.055c0.649,0,1.301,0.249,1.876,0.452
		c0.227,0.072,0.302-0.152,0.302-0.352c0-1.203-0.878-2.28-2.178-2.28c-0.978,0-1.632,0.251-2.155,0.553
		c-0.199,0.124-0.426,0.073-0.523-0.103l-0.527-0.927c-0.102-0.201,0-0.4,0.125-0.474c1.004-0.552,1.979-0.827,3.082-0.827
		c2.324,0,4.056,1.829,4.056,4.057v7.435C314.26,208.688,314.133,208.84,313.957,208.84 M310.203,202.757
		c-1.453,0-2.229,1.202-2.229,2.278c0,1.15,0.877,2.278,2.229,2.278c1.4,0,2.179-1.128,2.179-2.278
		C312.382,203.958,311.525,202.757,310.203,202.757z"/>
	<path fill="#373737" d="M321.525,197.024c-0.856,0-1.613,0.23-2.238,0.624v-5.005c0-0.177-0.151-0.325-0.303-0.325h-1.301
		c-0.148,0-0.3,0.148-0.3,0.325v12.392c0,2.153,1.654,4.055,4.134,4.055h0.002c0,0,0.004,0,0.006,0c0.009,0,0.021,0,0.029,0
		c0.057,0,0.11-0.003,0.166-0.004c0.024,0,0.051-0.004,0.074-0.004c0.048-0.002,0.096-0.008,0.143-0.011
		c0.018-0.001,0.035-0.004,0.055-0.004c0.375-0.038,0.706-0.121,0.997-0.23c0.003-0.002,0.009-0.002,0.014-0.003
		c0.046-0.019,0.087-0.037,0.136-0.056c1.508-0.624,2.443-2.11,2.443-3.742v-3.954C325.582,198.976,323.979,197.024,321.525,197.024
		 M319.298,201.081c0-1.127,0.824-2.28,2.205-2.28c1.423,0,2.2,1.153,2.2,2.28v3.954c0,0.513-0.162,1.031-0.469,1.439
		c-0.043,0.035-0.084,0.074-0.117,0.112c-0.074,0.099-0.2,0.244-0.399,0.379c-0.229,0.155-0.5,0.267-0.806,0.316
		c-0.004,0.001-0.012,0.001-0.016,0.001c-0.027,0.005-0.056,0.009-0.08,0.014c-0.032,0.002-0.063,0.005-0.096,0.01
		c-0.015,0-0.027,0-0.041,0.001c-0.053,0.005-0.104,0.007-0.16,0.007c-1.373-0.005-2.224-1.154-2.224-2.279L319.298,201.081
		L319.298,201.081z"/>
	<path fill="#373737" d="M340.945,203.882h-5.381c-0.176,0-0.328,0.15-0.328,0.327v0.826c0,1.125,0.852,2.278,2.229,2.278
		c1.4,0,2.155-1.052,2.555-1.626c0.098-0.152,0.299-0.178,0.422-0.103l0.828,0.574c0.324,0.229,0.252,0.402,0.199,0.528
		c-0.349,0.699-1.576,2.401-4.004,2.401c-2.479,0-4.132-1.901-4.132-4.055v-3.954c0-2.104,1.653-4.056,4.132-4.056
		c2.45,0,4.057,1.952,4.057,4.056v2.226C341.521,203.606,341.221,203.882,340.945,203.882 M335.236,201.081v0.825
		c0,0.176,0.152,0.325,0.328,0.325h3.756c0.173,0,0.322-0.149,0.322-0.325v-0.825c0-1.127-0.776-2.28-2.201-2.28
		C336.062,198.8,335.236,199.953,335.236,201.081z"/>
	<path fill="#373737" d="M293.24,171.568c0.002-0.012,0-0.102,0-0.102h-0.002c-0.119-1.514-4.527-2.729-9.954-2.729
		c-5.421,0-9.83,1.215-9.948,2.729h-0.002v0.011c0,0.018,0,0.087,0,0.104v1.52c0,0.017-0.005,0.033-0.005,0.051
		c0,1.543,4.459,2.794,9.956,2.794c5.502,0,9.958-1.251,9.958-2.794c0-0.012,0-0.025-0.003-0.038V171.568L293.24,171.568
		L293.24,171.568z"/>
	<path fill="#CBCBCB" d="M268.17,174.704c0-0.007,0.002-0.014,0.002-0.021c0-2.001-5.293-3.624-11.828-3.624
		c-6.527,0-11.822,1.623-11.822,3.624c0,0.009,0.002,0.015,0.002,0.021h-0.002v2.019h0.002c0.041,1.99,5.317,3.601,11.82,3.601
		c6.506,0,11.782-1.611,11.825-3.601h0.005v-2.019H268.17L268.17,174.704z"/>
	<path fill="#CBCBCB" d="M295.048,184.293c0-0.014-0.006-0.17-0.006-0.17c-0.196-2.925-7.001-5.274-15.374-5.274
		s-15.178,2.351-15.374,5.274h-0.004c0,0-0.003,0.176,0,0.197v2.352h0.004c0.187,2.927,6.997,5.28,15.374,5.28
		c8.379,0,15.188-2.354,15.374-5.28h0.006c0,0,0-0.15,0-0.166V184.293z"/>
	<path fill="#CBCBCB" d="M272.792,166.017c-0.08-1.019-3.827-1.836-8.437-1.836c-4.611,0-8.355,0.818-8.436,1.836h-0.005v1.073
		h0.005c0.091,1.017,3.833,1.832,8.436,1.832c4.604,0,8.344-0.814,8.435-1.832h0.004v-1.073H272.792L272.792,166.017z"/>
	<path fill="#252525" d="M293.189,173.117v-1.538c-0.072,1.518-4.479,2.74-9.905,2.74c-5.407,0-9.8-1.215-9.901-2.728v1.513
		c0,0.017-0.005,0.034-0.005,0.052c0,1.535,4.437,2.778,9.905,2.778c5.476,0,9.908-1.244,9.908-2.778
		C293.191,173.143,293.191,173.13,293.189,173.117z"/>
	<path fill="#8F8F8F" d="M268.17,174.704c-0.039,1.992-5.316,3.604-11.824,3.604c-6.506,0-11.783-1.612-11.822-3.604h-0.002v2.019
		h0.002c0.041,1.99,5.318,3.601,11.822,3.601c6.506,0,11.781-1.611,11.824-3.601h0.005v-2.019H268.17L268.17,174.704z"/>
	<path fill="#8F8F8F" d="M295.048,184.293c-0.063,2.966-6.924,5.361-15.38,5.361c-8.429,0-15.273-2.381-15.378-5.334
		c0,0-0.002,2.272,0,2.296v0.055h0.005c0.188,2.927,6.997,5.28,15.374,5.28c8.379,0,15.188-2.354,15.374-5.28h0.007L295.048,184.293
		L295.048,184.293z"/>
	<path fill="#8F8F8F" d="M264.355,167.917c-4.664,0-8.441-0.838-8.441-1.868v1.041h0.005c0.091,1.017,3.833,1.831,8.437,1.831
		c4.603,0,8.343-0.814,8.434-1.831h0.004v-1.041C272.794,167.08,269.016,167.917,264.355,167.917z"/>
</g>
</svg>
