<?xml version="1.0" encoding="UTF-8" standalone="no"?>
<!-- Generator: Adobe Illustrator 16.0.0, SVG Export Plug-In . SVG Version: 6.00 Build 0)  -->

<svg
   xmlns:dc="http://purl.org/dc/elements/1.1/"
   xmlns:cc="http://creativecommons.org/ns#"
   xmlns:rdf="http://www.w3.org/1999/02/22-rdf-syntax-ns#"
   xmlns:svg="http://www.w3.org/2000/svg"
   xmlns="http://www.w3.org/2000/svg"
   xmlns:sodipodi="http://sodipodi.sourceforge.net/DTD/sodipodi-0.dtd"
   xmlns:inkscape="http://www.inkscape.org/namespaces/inkscape"
   version="1.1"
   id="Layer_1"
   x="0px"
   y="0px"
   width="134.79201"
   height="19.893999"
   viewBox="0 0 134.79201 19.893999"
   enable-background="new 0 0 800 600"
   xml:space="preserve"
   inkscape:version="0.48.4 r9939"
   sodipodi:docname="panasonic.svg"><metadata
     id="metadata27"><rdf:RDF><cc:Work
         rdf:about=""><dc:format>image/svg+xml</dc:format><dc:type
           rdf:resource="http://purl.org/dc/dcmitype/StillImage" /></cc:Work></rdf:RDF></metadata><defs
     id="defs25" /><sodipodi:namedview
     pagecolor="#ffffff"
     bordercolor="#666666"
     borderopacity="1"
     objecttolerance="10"
     gridtolerance="10"
     guidetolerance="10"
     inkscape:pageopacity="0"
     inkscape:pageshadow="2"
     inkscape:window-width="1366"
     inkscape:window-height="711"
     id="namedview23"
     showgrid="false"
     fit-margin-top="0"
     fit-margin-left="0"
     fit-margin-right="0"
     fit-margin-bottom="0"
     inkscape:zoom="3.1466667"
     inkscape:cx="122.6588"
     inkscape:cy="-11.040482"
     inkscape:window-x="0"
     inkscape:window-y="24"
     inkscape:window-maximized="1"
     inkscape:current-layer="Layer_1" /><g
     id="g3"
     transform="translate(-330.283,-277.356)"><path
       d="m 362.556,283.054 h 4.986 l 0.22,1.644 c 0.384,-1.314 2.905,-2.246 4.438,-2.246 3.562,0 4.986,2.191 4.986,6.027 v 8.273 h -5.533 v -7.397 c 0,-1.481 -0.274,-2.574 -1.753,-2.574 -1.37,0 -2.082,1.48 -2.082,2.521 v 7.451 h -5.261 v -13.699 l -0.001,0 z"
       id="path5"
       inkscape:connector-curvature="0"
       style="fill:#898989" /><path
       d="m 330.283,296.807 v -19.398 h 9.26 c 5.534,0 8.055,2.686 8.055,6.576 0,4.163 -2.301,7.013 -8.055,7.013 h -3.123 v 5.809 l -6.137,0 0,0 z m 8.603,-10.521 c 1.481,0 3.068,-0.329 3.068,-2.028 0,-1.752 -1.699,-2.136 -3.068,-2.136 h -2.466 v 4.164 h 2.466 l 0,0 z"
       id="path7"
       inkscape:connector-curvature="0"
       style="fill:#898989" /><path
       d="m 423.487,283.054 h 5.041 l 0.164,1.644 c 0.436,-1.314 2.957,-2.246 4.49,-2.246 3.507,0 4.986,2.191 4.986,6.027 v 8.328 h -5.534 v -7.452 c 0,-1.481 -0.329,-2.574 -1.806,-2.574 -1.317,0 -2.029,1.48 -2.029,2.521 v 7.506 h -5.315 l 0.003,-13.754 0,0 z"
       id="path9"
       inkscape:connector-curvature="0"
       style="fill:#898989" /><path
       d="m 398.062,291.875 c 0,0.549 0.274,1.369 0.603,1.646 0.384,0.272 0.88,0.549 1.479,0.549 0.987,0 1.755,-0.272 1.755,-1.205 0.055,-2.301 -8.327,-0.271 -8.327,-5.752 0,-3.837 2.956,-4.714 6.024,-4.714 3.069,0 7.288,0.604 7.123,4.768 h -4.657 c 0,-0.384 -0.163,-0.657 -0.383,-0.986 -0.329,-0.384 -0.713,-0.548 -1.422,-0.604 -0.932,-0.054 -1.808,0.11 -1.808,0.822 0.055,2.135 8.657,0.712 8.657,5.754 0,3.503 -2.465,5.097 -7.232,5.097 -3.014,-0.055 -6.794,-1.589 -6.794,-5.37 h 4.984 l -0.002,-0.005 0,0 z"
       id="path11"
       inkscape:connector-curvature="0"
       style="fill:#898989" /><path
       d="m 454.774,288.368 c 0,-0.333 0,-0.767 -0.438,-1.314 -0.22,-0.274 -0.714,-0.879 -1.48,-0.879 -2.082,0 -2.63,2.029 -2.63,3.672 0,1.919 0.876,3.505 2.517,3.505 1.425,0 2.138,-1.313 2.138,-2.411 h 4.822 c 0.112,2.85 -1.863,6.247 -7.175,6.247 -4.331,0 -7.398,-3.016 -7.398,-7.397 0,-5.315 3.947,-7.343 7.343,-7.343 4.602,0 7.232,2.794 7.175,5.92 l -4.874,0 0,0 0,0 z"
       id="path13"
       inkscape:connector-curvature="0"
       style="fill:#898989" /><path
       d="m 356.694,296.807 -0.547,-1.151 c -1.042,0.877 -2.138,1.368 -3.891,1.368 -1.698,-0.052 -5.041,-0.272 -5.041,-3.946 0,-6.026 8.985,-3.287 8.985,-6.246 0,-0.986 -1.096,-0.931 -1.699,-0.931 -1.095,0 -1.806,0.218 -1.973,1.861 h -4.603 c 0,-2.849 0.879,-5.259 6.904,-5.259 5.864,0 6.467,3.067 6.467,6.083 v 6.247 c 0,0.821 0.053,1.205 0.603,1.807 v 0.111 l -5.205,0.056 0,0 z m -0.438,-6.302 c -1.863,0.879 -4.219,0.822 -4.274,2.191 0,0.878 0.495,1.314 1.589,1.314 1.808,0.001 2.794,-1.861 2.685,-3.505 l 0,0 z m 31.342,6.302 -0.548,-1.151 c -1.041,0.877 -2.192,1.368 -3.891,1.368 -1.753,-0.052 -5.098,-0.272 -5.098,-3.946 0,-6.026 8.989,-3.287 9.041,-6.246 0,-0.986 -1.15,-0.931 -1.699,-0.931 -1.15,0 -1.806,0.218 -1.972,1.861 h -4.603 c 0,-2.849 0.822,-5.259 6.904,-5.259 5.808,0 6.411,3.067 6.411,6.083 v 6.247 c 0,0.821 0.055,1.205 0.603,1.807 v 0.111 l -5.148,0.056 0,0 z m -0.439,-6.302 c -1.863,0.879 -4.274,0.822 -4.274,2.191 0,0.878 0.438,1.314 1.589,1.314 1.754,0.001 2.795,-1.861 2.685,-3.505 l 0,0 z"
       id="path15"
       inkscape:connector-curvature="0"
       style="fill:#898989" /><path
       d="m 444.254,296.807 v -13.755 h -5.098 v 13.755 h 5.098 l 0,0 z M 439.157,281.3 h 5.099 v -3.944 h -5.099 v 3.944 l 0,0 z"
       id="path17"
       inkscape:connector-curvature="0"
       style="fill:#898989" /><path
       d="m 415.269,282.561 c 4.548,0 7.34,3.178 7.34,7.342 0,4.218 -2.795,7.339 -7.34,7.339 -4.551,0 -7.398,-3.121 -7.398,-7.339 0,-4.165 2.85,-7.342 7.398,-7.342 l 0,0 z m -2.412,7.341 c 0,1.699 0.547,3.78 2.413,3.834 1.863,0 2.353,-2.135 2.353,-3.834 0,-1.646 -0.493,-3.784 -2.353,-3.784 -1.866,0.003 -2.358,2.141 -2.413,3.784 l 0,0 z"
       id="path19"
       inkscape:connector-curvature="0"
       style="fill:#898989" /><path
       d="m 462.938,294.12 c 0.331,0 0.821,0.054 0.821,-0.384 0,-0.383 -0.328,-0.437 -0.602,-0.437 h -0.655 v 0.82 h 0.436 l 0,10e-4 z m 1.096,1.316 h -0.332 l -0.654,-1.097 h -0.549 v 1.097 h -0.274 v -2.355 h 0.987 c 0.44,0 0.832,0.133 0.832,0.656 0,0.438 -0.284,0.603 -0.724,0.603 l 0.714,1.096 0,0 z m 0.795,-1.124 c 0,-1.04 -0.819,-1.865 -1.806,-1.865 -1.04,0 -1.863,0.822 -1.863,1.865 0,0.986 0.819,1.807 1.863,1.807 0.984,0.003 1.806,-0.819 1.806,-1.807 l 0,0 z m -3.917,-0.027 c 0,-1.15 0.93,-2.082 2.08,-2.082 1.152,0 2.083,0.932 2.083,2.082 0,1.15 -0.931,2.082 -2.083,2.082 -1.15,0 -2.08,-0.931 -2.08,-2.082 l 0,0 z"
       id="path21"
       inkscape:connector-curvature="0"
       style="fill:#898989" /></g></svg>