<?xml version="1.0" encoding="utf-8"?>
<!-- Generator: Adobe Illustrator 16.0.4, SVG Export Plug-In . SVG Version: 6.00 Build 0)  -->
<!DOCTYPE svg PUBLIC "-//W3C//DTD SVG 1.1//EN" "http://www.w3.org/Graphics/SVG/1.1/DTD/svg11.dtd">
<svg version="1.1" id="Logo" xmlns="http://www.w3.org/2000/svg" xmlns:xlink="http://www.w3.org/1999/xlink" x="0px" y="0px"
	 width="113.001px" height="28.589px" viewBox="255.739 66.615 113.001 28.589"
	 enable-background="new 255.739 66.615 113.001 28.589" xml:space="preserve">
<g opacity="0.5">
	<path d="M281.686,76.693c1.227,0,2.402-1.021,2.606-2.279c0.242-1.227-0.589-2.248-1.813-2.248c-1.227,0-2.402,1.021-2.61,2.248
		C279.628,75.671,280.426,76.693,281.686,76.693z"/>
	<path d="M364.893,80.335c0,0,2.689,0,2.742,0c0.377,0,0.596-0.151,0.682-0.502c0.121-0.506,0.342-1.387,0.404-1.627
		c0.081-0.315-0.103-0.556-0.453-0.556c-0.084,0-1.373,0-2.707,0c0.195-0.776,0.955-3.294,0.955-4.937
		c0-3.278-2.783-6.067-6.734-6.067c-4.463,0-7.364,2.994-7.364,7.208c0,1.229,0.459,2.661,1.026,3.55
		c-0.236-0.014-0.481-0.021-0.734-0.021c-3.391,0-5.525,1.839-5.525,4.515c0,2.513,1.98,3.487,3.844,4.138
		c1.656,0.576,3.182,0.846,3.182,2.139c0,0.871-0.839,1.385-2.48,1.385c-1.947,0-3.019-0.918-3.291-1.266
		c0.186-0.146,0.459-0.49,0.459-1.065c0-0.806-0.564-1.462-1.614-1.462c-0.888,0-1.64,0.725-1.827,1.678
		c-1.428,1.167-2.982,1.924-5.191,1.924c-2.175,0-3.304-1.132-3.304-3.537c0.511,0.154,1.837,0.342,2.715,0.342
		c3.683,0,6.19-1.674,6.19-5.023c0-1.801-1.581-3.693-4.71-3.693h-0.007c-4.115,0-6.42,2.606-7.428,5.475
		c-0.281-0.068-0.563-0.135-0.847-0.198c0.226-0.636,0.388-1.373,0.388-2.19c0-1.416-0.877-3.086-3.225-3.086
		c-1.635,0-3.186,1.071-4.26,2.676c0.268-1.047,0.443-1.744,0.455-1.791c0.07-0.274-0.043-0.579-0.471-0.579
		c-0.548,0-2.408,0-2.408,0c-0.344,0-0.586,0.12-0.684,0.512c-0.064,0.261-0.893,3.507-1.697,6.668
		c-0.508,1.972-3.133,4.425-6.433,4.425c-2.174,0-3.302-1.205-3.302-3.611c0.568,0.227,1.837,0.416,2.714,0.416
		c3.831,0,6.19-1.672,6.19-5.022c0-1.801-1.582-3.692-4.711-3.692h-0.006c-4.635,0-7.473,3.599-7.953,7.68
		c-0.201,1.695-1.633,4.025-3.185,4.025c-0.756,0-1.179-0.476-1.179-1.281c0-0.696,0.49-2.399,1.027-4.533
		c0.18-0.715,0.453-1.803,0.756-3.01c1.369,0,2.468,0,2.521,0c0.375,0,0.595-0.152,0.681-0.502c0.12-0.506,0.342-1.387,0.403-1.627
		c0.082-0.316-0.101-0.556-0.453-0.556c-0.083,0-2.478,0-2.478,0s1.142-4.55,1.168-4.667c0.109-0.462-0.277-0.729-0.684-0.645
		c0,0-1.914,0.375-2.27,0.449c-0.357,0.071-0.635,0.268-0.764,0.783c-0.017,0.065-1.014,4.079-1.014,4.079s-1.943,0-1.988,0
		c-0.375,0-0.596,0.153-0.68,0.503c-0.121,0.504-0.343,1.387-0.404,1.627c-0.082,0.316,0.102,0.555,0.451,0.555
		c0.072,0,0.889,0,1.951,0c-0.014,0.057-0.705,2.684-1.263,5.037c-0.263,1.131-1.144,3.778-2.587,3.778
		c-0.861,0-1.226-0.435-1.226-1.366c0-1.469,1.445-5.144,1.445-6.811c0-2.227-1.195-3.518-3.644-3.518
		c-1.543,0-3.143,0.996-3.82,1.871c0,0,0.205-0.717,0.275-0.992c0.075-0.291-0.08-0.575-0.461-0.575c-0.548,0-1.875,0-2.395,0
		c-0.51,0-0.65,0.272-0.725,0.571c-0.031,0.121-0.893,3.508-1.721,6.758c-0.566,2.228-1.941,4.088-3.414,4.088
		c-0.756,0-1.093-0.475-1.093-1.281c0-0.695,0.45-2.416,0.987-4.55c0.652-2.597,1.229-4.736,1.291-4.986
		c0.082-0.319-0.062-0.599-0.476-0.599c-0.517,0-1.86,0-2.407,0c-0.437,0-0.593,0.229-0.685,0.547c0,0-0.677,2.564-1.396,5.421
		c-0.521,2.073-1.096,4.185-1.096,5.177c0,1.771,0.795,3.104,2.979,3.104c1.687,0,3.021-0.854,4.041-1.944
		c-0.15,0.59-0.245,0.963-0.255,1.001c-0.088,0.337,0.019,0.636,0.416,0.636c0.547,0,1.925,0,2.464,0
		c0.429,0,0.594-0.172,0.684-0.547c0.086-0.357,1.927-7.596,1.927-7.596c0.486-1.945,1.689-3.232,3.383-3.232
		c0.802,0,1.496,0.532,1.416,1.564c-0.088,1.137-1.459,5.218-1.459,7.01c0,1.355,0.504,3.11,3.056,3.11
		c1.739,0,3.021-0.834,3.952-1.911c0.342,1.143,1.246,1.911,2.902,1.911c2.754,0,4.416-1.634,5.391-3.274
		c0.81,1.906,2.705,3.273,5.484,3.273c2.834,0,5.025-1.194,6.58-2.818c-0.279,1.096-0.469,1.84-0.484,1.901
		c-0.088,0.342,0.062,0.61,0.463,0.61c0.535,0,2.208,0,2.439,0c0.332,0,0.57-0.17,0.657-0.521c0.043-0.173,0.396-1.534,0.894-3.47
		c0.951-3.702,2.481-7.545,4.779-7.545c0.811,0,1.145,0.453,1.145,1.168c0,0.336-0.098,0.627-0.184,0.783
		c-1.113-0.222-2.011,0.328-2.011,1.519c0,0.774,0.815,1.479,1.917,1.479c0.841,0,1.537-0.207,2.092-0.58
		c0.518,0.106,1.074,0.229,1.635,0.355c-0.086,0.557-0.129,1.104-0.129,1.622c0,2.974,2.123,5.493,5.926,5.493
		c2.98,0,5.027-1.092,6.793-2.488c0.849,1.389,2.992,2.512,5.804,2.512c3.854,0,6.04-2.004,6.04-4.652
		c0-2.397-1.969-3.28-3.998-4.016c-1.648-0.596-3.025-0.92-3.025-2.086c0-0.955,0.752-1.393,2.041-1.393
		c0.838,0,1.465,0.18,1.801,0.273c0.332,0.834,1.021,1.756,2.195,1.756c0.995,0,1.441-0.787,1.441-1.512
		c0-2.062-3.436-2.277-3.436-6.699c0-2.75,1.557-5.018,4.778-5.018c2.238,0,3.7,1.42,3.7,3.711c0,1.889-1.146,5.252-1.146,5.252
		s-1.901,0-1.947,0c-0.375,0-0.596,0.153-0.68,0.504c-0.121,0.504-0.344,1.385-0.404,1.627c-0.082,0.314,0.102,0.555,0.451,0.555
		c0.071,0,1.901,0,1.901,0s-1.966,7.25-1.966,8.568c0,1.77,0.998,3.104,3.184,3.104c3.094,0,5.024-2.01,5.865-4.932
		c0.064-0.227-0.062-0.41-0.292-0.41c-0.396,0-0.999,0-1.18,0c-0.235,0-0.372,0.135-0.433,0.365
		c-0.267,1.036-0.927,2.129-2.228,2.129c-0.756,0-1.179-0.477-1.179-1.281c0-0.697,0.462-2.327,1.029-4.533
		C364.41,82.296,364.893,80.335,364.893,80.335z M340.512,80.212c1.094,0,1.613,0.728,1.613,1.594c0,1.466-1.137,2.359-2.916,2.359
		c-0.637,0-1.525-0.15-2.052-0.326C337.378,82.492,338.354,80.212,340.512,80.212z M314.791,80.212c1.197,0,1.611,0.728,1.611,1.594
		c0,1.466-1.137,2.359-2.914,2.359c-0.637,0-1.526-0.15-2.053-0.326C311.656,82.492,312.521,80.212,314.791,80.212z"/>
	<path d="M267.475,66.615c-7.802,0-11.735,5.594-11.735,10.258c0,2.826,1.069,5.338,3.362,6.273
		c0.377,0.154,0.713,0.006,0.822-0.411c0.076-0.288,0.256-1.015,0.335-1.317c0.11-0.412,0.067-0.556-0.235-0.914
		c-0.662-0.78-1.084-1.791-1.084-3.221c0-4.15,3.104-7.865,8.084-7.865c4.41,0,6.834,2.693,6.834,6.293
		c0,4.734-2.096,8.73-5.207,8.73c-1.717,0-3.004-1.421-2.592-3.163c0.494-2.081,1.45-4.325,1.45-5.827
		c0-1.344-0.722-2.465-2.215-2.465c-1.756,0-3.167,1.817-3.167,4.25c0,1.551,0.523,2.6,0.523,2.6s-1.797,7.613-2.111,8.947
		c-0.627,2.655-0.096,5.911-0.049,6.24c0.025,0.193,0.277,0.241,0.39,0.094c0.162-0.211,2.253-2.793,2.966-5.373
		c0.2-0.73,1.154-4.515,1.154-4.515c0.57,1.089,2.238,2.047,4.011,2.047c5.279,0,8.86-4.812,8.86-11.254
		C277.871,71.152,273.745,66.615,267.475,66.615z"/>
</g>
</svg>
