<?xml version="1.0" encoding="utf-8"?>
<!-- Generator: Adobe Illustrator 16.0.4, SVG Export Plug-In . SVG Version: 6.00 Build 0)  -->
<!DOCTYPE svg PUBLIC "-//W3C//DTD SVG 1.1//EN" "http://www.w3.org/Graphics/SVG/1.1/DTD/svg11.dtd">
<svg version="1.1" id="Layer_1" xmlns="http://www.w3.org/2000/svg" xmlns:xlink="http://www.w3.org/1999/xlink" x="0px" y="0px"
	 width="163.775px" height="24.002px" viewBox="-23.887 -3.5 163.775 24.002" enable-background="new -23.887 -3.5 163.775 24.002"
	 xml:space="preserve">
<g opacity="0.4">
	<g>
		<path d="M133.408,10.869c2.12-1.329,2.543-4.247,5.48-4.896l-0.825-2.823c-4.479,0.845-4.759,6.093-9.062,6.804v-8.04h0.038
			v-5.345l-3.089,1.387l-0.034,13.23l-0.396,0.499l-1.017,1.217l-0.932,0.97l-0.815,0.8l-0.826,0.706l-1.115,0.916l-0.015-0.022
			c0,0-1.877,1.496-4.594,1.496c-3.252,0-5.54-2.414-5.54-5.908c0-3.512,2.392-5.855,5.239-5.855c2.105,0,3.429,1.146,3.943,2.306
			l2.564-1.186c-0.339-1.093-2.212-3.84-6.404-3.84c-4.787,0-8.361,3.57-8.361,8.576c0,1.338,0.234,2.551,0.666,3.622
			c-0.331,0.998-1.053,1.791-2.33,1.969c-0.748,0.104-1.104,0.158-1.794,0.029c-0.719-0.285-1.087-0.797-1.087-1.762V8.824
			c0-3.768-2.496-5.648-6.629-5.648c-3.848,0-6.271,1.671-6.271,1.671l0.005,3.221c0,0,3.547-2.383,6.098-2.173
			c1.727,0.142,3.639,0.787,3.639,2.9v0.979c0,0-1.56-0.48-4.121-0.48c-3.404,0-6.938,1.674-6.938,5.543
			c0,0.405,0.038,0.792,0.107,1.164c-0.387,0.774-1.067,1.358-2.142,1.505c-0.372,0.053-0.711,0.066-1.018,0.066
			c-0.088-0.004-0.227-0.006-0.383-0.01c-0.466-0.021-0.783-0.043-0.783-0.043c-1.454-0.213-1.865-1.184-1.865-2.754V6.043h4.618
			V3.238h-4.618v-5.985L79.627-1.32v4.559h-3.09v2.805h3.09v8.972c0,3,1.181,5.346,4.857,5.346c0.479,0,1.029-0.185,1.508-0.389
			c0.611-0.175,1.016-0.377,1.016-0.377c1.419-0.693,2.112-1.519,2.444-2.222c0.924,1.858,2.931,3.015,5.714,3.015
			c3.215,0,5.324-1.865,5.324-1.865s0.617,1.101,1.925,1.5l-0.002,0.004c0.021,0.005,0.038,0.005,0.06,0.011
			c0.357,0.103,0.766,0.147,1.227,0.108c1.352-0.054,2.441-0.605,2.441-0.605c1.988-0.973,2.556-2.203,2.698-2.994
			c1.45,2.492,4.124,3.955,7.406,3.955c1.324,0,2.521-0.16,3.501-0.482c1.551-0.529,2.462-1.422,2.462-1.422l-0.005-0.009
			l0.469-0.39l0.646-0.594l0.765-0.854l0.682-0.925l0.653-1.086l0.487-1.027v6.758l3.099-0.007v-7.558
			c0.86-0.207,1.457-0.373,1.77-0.508l5.203,8.094h3.912L133.408,10.869z M99.946,15.82c0,0-1.909,1.844-4.505,1.844
			c-1.771,0-3.545-0.742-3.545-2.782c0-2.259,2.438-2.962,4.103-2.962c2.353,0,3.947,0.471,3.947,0.471V15.82z M67.598,3.176
			c-2.677,0-4.163,1.362-4.163,1.362l0.007-7.93l-3.086,1.395v17.601c-0.343,0.97-1.058,1.734-2.309,1.905
			c-0.894,0.125-1.649,0.054-1.981,0.009c-1.113-0.283-1.677-0.697-1.677-1.912V9.531c0-4.18-2.015-6.457-5.662-6.457
			c-3.013,0-5.546,2.277-5.546,2.277s-1.283-2.277-4.544-2.277c-2.763,0-4.843,2.033-5.207,2.415V3.193l-3.088,1.393l0.003,10.357
			c-0.225,1.266-0.958,2.355-2.48,2.562c-0.78,0.108-1.323,0.083-1.701,0.039l-0.135-0.02c-0.953-0.113-1.012-1.137-1.02-1.592
			l0.002-12.64l-3.167,1.394v10.878c-0.044,0.057-1.645,2.029-4.938,2.029c-2.391,0-3.705-0.97-3.705-3.436L13.187,3.294
			l-3.131,1.394l0.02,9.6c0,0.062,0.006,0.121,0.006,0.187C9.963,15.93,9.25,17.27,7.542,17.504
			c-0.741,0.102-1.39,0.071-1.779,0.033l0.002-0.01c-1.313-0.35-1.707-0.723-1.707-1.898V9.797c0-4.437-2.101-6.81-5.94-6.81
			c-3.307,0-5.869,2.236-5.869,2.236V-3.5l-3.169,1.398l0.064,16.181c-0.016,1.604-0.85,3.175-2.712,3.431
			c-0.371,0.053-0.71,0.066-1.015,0.066c-0.088-0.003-0.23-0.006-0.385-0.008c-0.465-0.022-0.766-0.078-0.766-0.078l-0.017,0.029
			c-1.455-0.211-1.866-1.183-1.866-2.754V6.043h4.614V3.238h-4.615v-5.985l-3.181,1.426v4.559h-3.09v2.805h3.09v8.973
			c0,3,1.18,5.346,4.858,5.346c0.477,0,1.029-0.186,1.506-0.391c0.616-0.174,1.018-0.377,1.018-0.377
			c1.502-0.734,2.189-1.613,2.5-2.343l0.002,1.772l3.147,1.393L-7.75,8.419c0,0,2.708-2.479,5.229-2.479
			c2.205,0,3.415,1.275,3.415,3.921v6.596c0,2.232,1.604,3.585,3.808,3.825l0.087,0.009c1.583,0.102,2.91-0.697,2.91-0.697
			c2.014-0.982,2.568-2.229,2.704-3.025c0.706,2.236,2.614,3.777,6.214,3.777c2.85,0,4.993-1.363,5.569-1.767
			c0.48,1.057,1.708,1.407,2.111,1.495l-0.001,0.007c1.874,0.456,3.726-0.487,3.726-0.487c1.269-0.619,1.954-1.342,2.324-1.992
			v1.323l3.097,1.394V8.623c0,0,2.118-2.66,4.745-2.66c1.494,0,2.702,0.675,2.702,3.464l0.023,9.499l3.069,1.395V7.969
			c0,0,2.25-1.979,4.331-1.979c1.941,0,2.983,1.12,2.983,3.659v6.599c0,2.457,1.592,3.629,3.407,3.877
			c1.794,0.332,3.497-0.528,3.497-0.528c1.092-0.535,1.751-1.147,2.15-1.722v0.706c0,0,2.703,1.805,6.829,1.805
			c5.037,0,8.596-3.34,8.596-8.634C75.778,6.747,72.248,3.176,67.598,3.176z M67.809,17.693c-2.391,0.104-4.365-0.859-4.365-0.859
			V7.441c0,0,1.729-1.48,4.606-1.48c2.761,0,4.84,2.491,4.84,5.79C72.89,11.751,73.229,17.456,67.809,17.693z"/>
	</g>
</g>
</svg>
