<?xml version="1.0" encoding="utf-8"?>
<!-- Generator: Adobe Illustrator 16.0.4, SVG Export Plug-In . SVG Version: 6.00 Build 0)  -->
<!DOCTYPE svg PUBLIC "-//W3C//DTD SVG 1.1//EN" "http://www.w3.org/Graphics/SVG/1.1/DTD/svg11.dtd">
<svg version="1.1" id="Layer_1" xmlns="http://www.w3.org/2000/svg" xmlns:xlink="http://www.w3.org/1999/xlink" x="0px" y="0px"
	 width="48.995px" height="54.221px" viewBox="375.97 272.438 48.995 54.221" enable-background="new 375.97 272.438 48.995 54.221"
	 xml:space="preserve">
<g opacity="0.5">
	<path d="M415.438,283.527c0.194,1.416,2.344,3.326,2.927,3.281c0.389,0,0.537-1.852,0.537-3.281c0-0.821,0.045-1.463-0.391-1.612
		C417.825,283.303,416.02,283.587,415.438,283.527L415.438,283.527z M415.558,282.9c1.553,0,2.971-1.239,2.971-2.328
		c0-0.508-0.239-0.924-0.853-1c0.104,0.134,0.15,0.238,0.15,0.477c0,0.821-1.252,1.73-2.611,1.73c-0.493,0-0.643,0.343-0.643,0.521
		C414.571,282.721,414.975,282.9,415.558,282.9L415.558,282.9z M415.229,281.214c-0.21,0-0.509,0-0.672-0.328
		c-0.135-0.269-0.089-0.699-0.343-0.896c0.254,0.074,0.522,0.074,0.73,0.074c0.672,0,1.312-0.463,1.806-0.463
		c0.329,0,0.432,0.209,0.432,0.418C417.183,280.677,415.855,281.214,415.229,281.214L415.229,281.214z M381.854,292.911
		c0.506,0,0.399-3.104,1.223-3.104c0.193,0,0.254,0.193,0.254,0.434c0,0.701-0.344,1.73-0.344,2.298
		c0,0.282,0.074,0.373,0.209,0.373c0.359,0,0.986-3.417,1.598-3.417c0.193,0,0.283,0.193,0.283,0.388c0,0.717-0.91,2.775-0.91,3.356
		c0,0.089,0.029,0.164,0.104,0.164c0.373,0,1.121-1.611,1.358-2.416c0.134-0.418,0.312-0.644,0.478-0.644
		c0.148,0,0.283,0.165,0.283,0.509c0,0.807-0.746,2.7-1.402,3.969c-0.508,0.984-1.299,2.402-1.299,3.193
		c0,0.401,0.076,0.819,0.656,1.326c-0.955-0.06-1.342-0.148-1.701-0.896c-1.596,3.178,2.94,2.865,1.39,5.685
		c-0.283-0.507-2.522-1.027-2.522-3.982c0-2.551,2.239-4.043,2.239-5.104c0-0.208-0.075-0.387-0.271-0.551
		c-0.492-0.417-0.508-0.762-0.896-0.762c-0.283,0-0.626,0.655-0.271,1.236c0.121,0.194,0.226,0.313,0.226,0.492
		c0,0.418-0.656,1.536-1.119,1.536s-0.821-1.147-0.821-2.998c0-1.643,0.373-3.297,0.836-3.297c0.133,0,0.179,0.089,0.179,0.209
		c0,0.193-0.06,0.581-0.06,1.238C381.556,292.852,381.718,292.911,381.854,292.911L381.854,292.911z M404.709,278.244
		c0.239,0,0.284,0.583,0.33,0.926c0.029,0.181,0.059,0.193,0.133,0.193c0.18,0,0.463-0.688,0.657-0.688
		c0.283,0,1.044,0.791,2.312,0.791c1.808,0,3.51-1.269,3.51-3.506c0-2.165-1.522-3.433-3.626-3.433c-1,0-1.731,0.492-2.119,0.492
		c-0.239,0.015-0.599-0.582-0.776-0.582c-0.075,0-0.147,0.146-0.147,0.401c0,0.164,0,0.688-0.182,0.688
		c-0.354,0-1.745-1.031-1.745-0.657c0,0.344,0.928,1.388,0.928,1.655c0,0.27-0.911,0.521-0.911,0.701
		c0,0.329,0.971,0.39,0.971,0.807s-1.016,0.746-1.016,1.06c0,0.256,1.016,0.074,1.016,0.391c0,0.312-0.747,1.354-0.747,1.656
		c0,0.073,0.015,0.073,0.075,0.073C403.65,279.216,404.501,278.244,404.709,278.244L404.709,278.244z M385.565,300.297
		c-0.015-0.299,0.194-0.582,0.509-0.61c0.312-0.045,0.597,0.192,0.626,0.506s-0.193,0.584-0.508,0.627
		C385.881,300.835,385.599,300.609,385.565,300.297L385.565,300.297z M383.912,300.76c0.062,0.509,0.537,0.896,1.071,0.837
		c0.193-0.018,0.373-0.076,0.492-0.15c0.121,0.478,0.492,0.775,1.045,0.716c0.553-0.044,0.94-0.507,0.881-1.058
		c0-0.149-0.045-0.238-0.09-0.345l0.104-0.015c0.521-0.06,0.924-0.538,0.879-1.06c-0.06-0.539-0.55-0.928-1.06-0.881
		c-0.193,0.045-0.357,0.104-0.479,0.209c-0.134-0.447-0.521-0.808-1.072-0.746c-0.522,0.028-0.928,0.537-0.867,1.088
		c0,0.076,0.031,0.194,0.076,0.299l-0.104,0.015C384.271,299.745,383.866,300.177,383.912,300.76L383.912,300.76z M417.153,273.396
		c0,0.209,0.164,0.373,0.372,0.373c0.209,0,0.373-0.164,0.373-0.373s-0.165-0.373-0.373-0.373S417.153,273.188,417.153,273.396
		L417.153,273.396z M408.829,287.54c0,0.344,0.282,0.627,0.625,0.627s0.626-0.283,0.626-0.627c0-0.342-0.283-0.627-0.626-0.627
		S408.829,287.198,408.829,287.54L408.829,287.54z M408.872,289.419c0,0.391,0.312,0.702,0.701,0.702
		c0.388,0,0.701-0.312,0.701-0.702c0-0.387-0.313-0.7-0.701-0.7C409.188,288.721,408.872,289.033,408.872,289.419L408.872,289.419z
		 M406.724,290.688c0,0.566,0.462,1.028,1.03,1.028c0.567,0,1.03-0.462,1.03-1.028s-0.463-1.029-1.03-1.029
		C407.186,289.659,406.724,290.121,406.724,290.688L406.724,290.688z M407.276,288.585c0,0.329,0.27,0.598,0.597,0.598
		c0.329,0,0.597-0.27,0.597-0.598s-0.269-0.597-0.597-0.597S407.276,288.257,407.276,288.585L407.276,288.585z M405.32,289.777
		c0,0.33,0.27,0.597,0.597,0.597c0.33,0,0.597-0.267,0.597-0.597c0-0.328-0.268-0.596-0.597-0.596
		C405.59,289.182,405.32,289.449,405.32,289.777L405.32,289.777z M406.858,286.287c0,0.521,0.433,0.955,0.954,0.955
		c0.521,0,0.953-0.432,0.953-0.955c0-0.522-0.433-0.955-0.953-0.955C407.291,285.332,406.858,285.764,406.858,286.287
		L406.858,286.287z M407.978,284.451c0,0.314,0.256,0.568,0.568,0.568s0.566-0.254,0.566-0.568c0-0.312-0.253-0.567-0.566-0.567
		C408.231,283.884,407.978,284.139,407.978,284.451L407.978,284.451z M405.276,285.884c0,0.312,0.254,0.568,0.565,0.568
		c0.313,0,0.568-0.255,0.568-0.568c0-0.312-0.254-0.564-0.568-0.564C405.53,285.318,405.276,285.57,405.276,285.884L405.276,285.884
		z M405.202,287.824c0,0.508,0.4,0.91,0.91,0.91c0.508,0,0.911-0.403,0.911-0.91c0-0.508-0.403-0.911-0.911-0.911
		C405.604,286.913,405.202,287.316,405.202,287.824L405.202,287.824z M403.322,288.779c0,0.463,0.388,0.85,0.851,0.85
		c0.462,0,0.853-0.387,0.853-0.85s-0.391-0.853-0.853-0.853C403.71,287.928,403.322,288.316,403.322,288.779L403.322,288.779z
		 M403.83,286.675c0,0.329,0.269,0.598,0.597,0.598c0.327,0,0.598-0.27,0.598-0.598c0-0.326-0.271-0.597-0.598-0.597
		C404.098,286.078,403.83,286.346,403.83,286.675L403.83,286.675z M401.845,308.669c0,0.326,0.271,0.594,0.599,0.594
		c0.326,0,0.597-0.269,0.597-0.594c0-0.331-0.271-0.598-0.597-0.598C402.113,308.071,401.845,308.339,401.845,308.669
		L401.845,308.669z M385.792,283.943c0,0.328,0.27,0.598,0.598,0.598c0.326,0,0.596-0.27,0.596-0.598s-0.271-0.596-0.596-0.596
		C386.062,283.348,385.792,283.616,385.792,283.943L385.792,283.943z M385.017,282.602c0,0.33,0.27,0.598,0.598,0.598
		s0.596-0.27,0.596-0.598s-0.27-0.599-0.596-0.599C385.283,282.004,385.017,282.273,385.017,282.602L385.017,282.602z
		 M385.657,297.282c0.627,0,1.148-0.462,1.148-1.492v-1.521c0-0.584,0.043-1.24,0.434-1.701c-0.047,0.193-0.047,0.402-0.047,0.596
		c0,1.284,0.719,2.164,0.719,3.402c0,0.461-0.135,0.716-0.492,0.716c-0.344,0-0.312-0.312-0.388-0.312c-0.062,0-0.15,0.191-0.15,0.4
		c0,0.313,0.226,0.809,0.853,0.809c0.535,0,0.969-0.492,0.969-1.047c0-1.343-1.043-2.834-1.043-4.267
		c0-0.627,0.162-1.045,0.297-1.373c0,2.97,2.521,5.133,2.521,6.372c0,0.282-0.209,0.508-0.522,0.508
		c-0.343,0-0.507-0.271-0.507-0.478c0-0.105-0.016-0.135-0.061-0.135c-0.091,0-0.359,0.299-0.359,0.688
		c0,0.492,0.404,1.089,1.147,1.089c0.853,0,1.314-0.716,1.314-1.357c0-1.565-3.06-3.938-3.06-6.476c0-0.434,0.073-1.134,0.387-1.671
		c-1.969,1.267-2.582,2.954-2.582,4.431c0,1.283-0.045,1.925-0.699,1.925c-0.344,0-0.434-0.312-0.553-0.312
		c-0.09,0-0.135,0.271-0.135,0.343C384.853,296.971,385.254,297.282,385.657,297.282L385.657,297.282z M411.514,282.378
		c0.656,0,1.149-0.298,1.149-0.478c0-0.062-0.09-0.104-0.284-0.104c-0.191,0-0.582-0.015-1.312-0.135
		c-0.628-0.104-1.105-0.343-1.284-0.343c-0.062,0-0.089,0.029-0.089,0.074C409.693,281.781,410.408,282.378,411.514,282.378
		L411.514,282.378z M408.261,280.482c0.193-0.119,1.028,0.074,2.118-0.463c0.134-0.072,0.271-0.104,0.388-0.104
		c0.523,0,0.391,0.596,0.867,0.596c0.373,0,0.852-0.312,1.134-0.312c0.446,0,1.09,1.402,1.09,2.059c0,0.763-1.147,1.224-2.508,1.224
		c-1.983,0-3.178-1.729-3.178-2.851C408.172,280.542,408.217,280.514,408.261,280.482L408.261,280.482z M385.972,302.907
		c-0.492,0.12-1.283,0.896-1.283,2.12c0,1.461,1.565,3.714,4.146,3.714c2.18,0,2.715-1.507,2.715-2.522
		c0-2.252-1.388-3.833-3.191-3.833c-0.984,0-1.865,0.717-1.865,1.775c0,0.985,0.746,2.461,2.521,2.461
		c0.836,0,1.327-0.597,1.327-1.284c0-0.67-0.61-1.595-1.507-1.595c-0.27,0-0.462,0.179-0.462,0.464c0,0.355,0.493,0.716,1.104,0.716
		c0.149,0,0.269-0.029,0.328-0.06c0.029,0.045,0.045,0.119,0.045,0.179c0,0.342-0.328,0.551-0.834,0.551
		c-0.763,0-1.492-0.564-1.492-1.462c0-0.537,0.461-0.926,1.134-0.926c1.327,0,2.118,1.18,2.118,2.355
		c0,1.062-0.582,1.673-1.774,1.673C386.61,307.235,385.448,305.087,385.972,302.907L385.972,302.907z M384.479,286.689
		c-0.346,0.09-1.061,0.509-1.061,1.252c0,0.537,0.417,0.882,0.938,0.882c0.271,0,0.463-0.06,0.584-0.149
		c-0.418-0.401-0.567-0.851-0.567-1.297C384.373,287.062,384.418,286.869,384.479,286.689L384.479,286.689z M380.823,286.898
		c-0.016,0.074-0.016,0.149-0.016,0.225c0,0.701,0.373,1.09,0.865,1.09c0.372,0,0.807-0.225,1.193-0.716
		c-0.164,0.03-0.358,0.044-0.537,0.044C381.776,287.54,381.181,287.393,380.823,286.898L380.823,286.898z M380.3,288.227
		c0,1.133,0.344,1.672,0.954,1.672c0.479,0,1.119-0.344,1.88-1c-0.583,0.135-1.027,0.225-1.432,0.225
		C381.166,289.122,380.748,288.914,380.3,288.227L380.3,288.227z M403.008,311.651c0.717,0,0.672-0.062,0.896-0.062
		c0.224,0,0.236,0.135,0.236,0.226c0,0.327-0.729,0.729-2.028,0.729c-0.763,0-1.226-0.402-1.356-0.851
		c-0.748,0.478-1.879,0.91-2.998,0.91c-3.059,0-3.836-1.327-4.79-1.762c-0.73-0.329-1.851,0.312-3.414-1.433
		c0.206,0.045,0.489,0.06,0.715,0.06c1.371,0,2.104-0.671,2.104-1.745c0-0.135-0.016-0.282-0.03-0.418
		c0.418,0.164,1.373,0.882,1.597,2.148c0.029,0.148,0.643,0.283,1.029,0.283c0.536,0,1.225-0.227,1.328-1.104
		c1.791-0.146,2.998-1.209,3.252-2.552c0.644,0.21,1.372,0.791,1.552,1.09c0.253-0.09,0.553-0.133,0.896-0.133
		c0.478,0,1.014,0.089,1.656,0.283c0.028-0.194,0.06-0.435,0.356-0.435c0.447,0,0.329,0.492,0.479,0.775
		c0.074,0.148,0.445,0.238,0.445,0.538c0,0.284-0.237,0.388-0.388,0.388c-0.06,0-0.134-0.015-0.179-0.029
		c-0.299,0.105-0.314,2.253-1.567,2.253c-0.926,0-1.773-0.762-2.147-1.717c-0.104-0.282-0.328-0.462-0.537-0.462
		c-0.239,0-0.373,0.046-0.657,0.357c-0.805,0.88-2.148,1.641-3.804,1.641c-0.509,0-0.911-0.044-1.017-0.044
		c-0.059,0-0.059,0.016-0.059,0.029c0,0.104,0.507,0.509,1.611,0.509c2.625,0,3.267-1.479,3.685-1.479c0.062,0,0.239,0,0.344,0.237
		c0.61,1.435,1.939,1.763,2.773,1.763L403.008,311.651L403.008,311.651L403.008,311.651z M394.534,281.661
		c0.982,0,1.432,0.852,1.432,1.806c0,0.417-0.117,1.029-0.312,1.029c-0.193,0-0.166-0.344-0.193-0.656
		c-0.029-0.401-0.104-0.491-0.236-0.491c-0.255,0-0.418,0.598-0.418,1.147c0,0.344,0.059,0.73,0.328,0.73
		c0.148,0,0.283-0.074,0.372-0.164c-0.059,0.687-0.565,1.283-1.28,1.283c-1.313,0-1.808-1.537-1.957-2.433
		c-0.789,0.836-1.521,1.447-2.832,1.447c-1.226,0-1.775-0.896-1.775-1.746c0-0.254,0.09-0.911,0.402-0.911
		c0.373,0,0.045,1.224,0.774,1.224c0.181,0,0.509-0.147,0.688-0.641c0.104-0.299,0.164-0.612,0.164-0.881
		c0-0.403-0.09-0.656-0.39-0.656c-0.254,0-0.565,0.193-0.671,0.298c0.357-1.074,1.225-1.626,2.18-1.626
		c1.178,0,1.807,1.045,1.807,2.208c0,0.164-0.016,0.346-0.047,0.507C393.073,282.302,393.772,281.661,394.534,281.661
		L394.534,281.661z M390.789,272.77c0-0.09-0.448-0.181-1.062-0.181c-0.97,0-0.834,0.808-1.58,0.808
		c-0.775,0-0.582-0.834-1.566-0.834c-0.6,0-1.148,0.104-1.148,0.236c0,0.18,0.699,0.104,0.699,0.598
		c0,0.521-1.506,0.672-1.506,0.983c0,0.104,0.12,0.149,0.27,0.149c0.328,0,0.852-0.149,1.224-0.149c0.21,0,0.403,0.045,0.403,0.239
		c0,0.373-0.808,1.045-0.808,1.344c0,0.092,0.075,0.119,0.15,0.119c0.298,0,0.806-0.762,1.282-0.762c0.791,0,0.27,1.687,0.701,1.687
		c0.447,0,0.252-1.655,0.896-1.655c0.522,0,0.911,1.147,1.271,1.147c0.088,0,0.164-0.075,0.164-0.179
		c0-0.312-0.449-0.955-0.449-1.373c0-0.254,0.18-0.373,0.418-0.373c0.344,0,0.807,0.209,1.061,0.209c0.09,0,0.18-0.03,0.18-0.134
		c0-0.358-1.33-0.746-1.33-1.209C390.06,272.979,390.789,272.979,390.789,272.77L390.789,272.77z M412.051,302.146
		c-0.312,0-2.045,2.312-3.163,2.312c-0.27,0-0.493-0.508-0.493-0.896c0-0.209,0.137-0.357,0.613-0.463
		c2.565-0.582,1.998-2.507,4.19-2.507c1.211,0,2.554,0.82,2.554,2.673c0,1.967-2.806,4.413-3.224,4.413
		c-0.345,0-0.719-0.492-0.719-0.818c0-0.105,0.047-0.239,0.346-0.358c1.432-0.567,2.253-1.879,2.253-2.552
		c0-0.149-0.074-0.298-0.271-0.298c-0.255,0-1.342,2.476-2.551,2.476c-0.837,0-1.688-0.761-1.688-1.117
		c0-0.598,2.417-1.701,2.417-2.537C412.319,302.16,412.17,302.146,412.051,302.146L412.051,302.146z M413.661,301.223
		c-0.209,0-0.435,0.164-0.435,0.564c0,0.448,0.347,0.729,0.538,0.821c0.104,0.06,0.271,0.119,0.435,0.119
		c0.432,0,0.773-0.119,0.773-0.479C414.975,301.788,414.304,301.223,413.661,301.223L413.661,301.223z M394.295,274.291
		c0,0.271,0.938,0.853,1.372,0.853c0.253,0,0.329-0.345,0.329-0.703c0-0.446-0.192-0.461-0.583-0.461
		C394.923,273.979,394.295,274.111,394.295,274.291L394.295,274.291z M395.849,277.245c0-0.896-2.445-2.552-2.445-3.224
		c0-0.029,0-0.045,0.014-0.074c0.18-0.492,2.208-0.836,2.208-1.239c0-0.193-0.356-0.193-0.536-0.193
		c-1.388,0-3.417,0.508-3.417,1.002c0,0.506,1.821,1.744,1.821,2.356c0,0.163-0.104,0.224-0.27,0.224
		c-0.508,0-1.611-0.611-2.134-0.611c-0.237,0-0.329,0.164-0.329,0.402c0,0.717,0.852,2.073,0.852,2.477
		c0,0.046-0.016,0.104-0.073,0.104c-0.269,0-1.538-1.491-1.983-1.491c-0.166,0-0.181,0.224-0.181,0.551v0.509
		c0,0.343-0.015,0.552-0.181,0.552c-0.387,0-0.566-1.09-0.939-1.09c-0.388,0-0.462,1.939-0.835,1.939
		c-0.433,0-0.06-2.133-0.479-2.133c-0.461,0-0.983,1.416-1.312,1.416c-0.12,0-0.149-0.119-0.149-0.225
		c0-0.433,0.254-1.134,0.254-1.552c0-0.209-0.061-0.328-0.238-0.328c-0.464,0-1.479,0.746-1.865,0.746
		c-0.061,0-0.135-0.029-0.135-0.09c0-0.357,1.627-1.491,1.627-2c0-0.492-2.238-0.164-2.238-0.73c0-0.477,1.598-0.97,1.598-1.463
		c0-0.432-1.896-0.626-2.625-0.626c-0.881,0-1.358,0.104-1.358,0.356c0,0.39,1.999,0.508,1.999,0.852
		c0,0.329-2.073,1.208-2.073,1.716c0,0.447,2.925,0.029,2.925,0.492c0,0.506-2.552,2.698-2.552,3.431
		c0,0.165,0.12,0.238,0.283,0.238c0.776,0,2.791-1.477,3.342-1.477c0.194,0,0.21,0.237,0.21,0.446c0,0.39-0.134,0.985-0.134,1.418
		c0,0.343,0.089,0.581,0.39,0.581c0.551,0,1.059-0.939,1.43-0.939c0.479,0,0.195,2.761,0.912,2.761c0.61,0,0.864-2.984,1.252-2.984
		c0.389,0,0.701,0.865,1.061,0.865c0.445,0,0.236-1.507,0.716-1.507c0.521,0,2.015,1.791,2.687,1.791
		c0.209,0,0.285-0.165,0.285-0.374c0-0.791-1.104-2.581-1.104-3.147c0-0.149,0.044-0.192,0.208-0.192
		c0.582,0,2.283,0.806,3.089,0.806C395.685,277.588,395.849,277.439,395.849,277.245L395.849,277.245z M416.214,294.418
		c0.239-0.747,0.536-1.27,1.027-2.074c-0.49-0.253-1.788-0.79-1.788-1.671c0-1.027,1.283-1.834,1.55-1.834
		c0.12,0,0.15,0.104,0.15,0.299c0,0.536-0.254,1.401-0.254,1.863c0,0.417,0.27,0.819,0.507,0.819c0.254,0,0.956-0.895,0.956-1.773
		c0-1.582-1.391-2.059-1.819-2.059c-0.404,0-1.135,0.656-2.853,0.656c-3.207,0-3.938-3.18-3.938-4.565
		c0-0.06,0.014-0.075,0.029-0.075c0.074,0,0.39,0.39,1.401,0.39c0.523,0,1.001-0.135,1.764-0.135c1.789,0,2.581,1.238,3.686,2.82
		c0.67,0.417,2.27,1.088,2.27,2.983c0,1.67-1.776,2.596-2.208,4.386c0.686-0.074,1.088-1.3,1.79-1.3c0.356,0,0.521,0.285,0.521,0.73
		c0,0.658-0.372,1.643-1.09,2.254c0.016-0.06,0.016-0.135,0.016-0.224c0-0.418-0.166-1.016-0.644-1.016
		c-0.744,0-0.983,0.807-1.402,1.478c-0.431-1.521-1.014-2.896-2.058-3.729c-1.061-0.853-2.88-0.391-2.88-1.939
		c0-0.418,0.269-1.014,0.269-1.491c0-0.164-0.029-0.312-0.119-0.433c1.435,0.537,0.925,1.49,1.808,2.476
		c0.551,0.626,2.071,1.225,2.954,3.805c0.015-0.074,0.027-0.269,0.027-0.402c0-2.207-2.923-4.371-3.176-5.266
		c1.7,0.192,1.998,0.609,2.805,2.848C415.676,292.703,416.214,293.852,416.214,294.418L416.214,294.418z M384.165,282.259
		c0.074-0.238,0.134-0.535,0.134-0.865c0-0.717-0.327-1.806-1.343-1.806c-0.582,0-1,0.462-1,1.015
		C381.957,281.781,383.135,282.259,384.165,282.259L384.165,282.259z M382.896,286.018c-0.492,0-1.028-0.609-1.028-1.162
		c0-0.299,0.225-0.672,0.387-0.672c0.062,0,0.093,0.045,0.104,0.147c0.091,0.73,0.567,1.148,1.016,1.357
		c0.045,0.028,0.075,0.045,0.075,0.074C383.449,285.869,383.165,286.018,382.896,286.018L382.896,286.018z M384.657,284.616
		c0,0.208-0.12,0.478-0.358,0.478c-0.521,0-0.938-0.792-0.938-1.237c0-0.283,0.164-0.312,0.389-0.312
		c0.104,0,0.148,0.017,0.225,0.062c0.133,0.074,0.133,0.373,0.297,0.596C384.356,284.348,384.657,284.51,384.657,284.616
		L384.657,284.616z M384.134,283.049c-0.089-0.015-0.208-0.015-0.326-0.015c-0.492,0-1.15,0.089-1.731,0.479
		c-1.312,0.852-1.104,2.192-1.312,2.535c-0.031,0.044-0.047,0.104-0.047,0.165c0,0.134,0.149,0.283,0.283,0.283
		c0.12,0,0.193-0.029,0.254-0.029c0.357,0,0.762,0.255,1.344,0.255c0.344,0,0.746-0.105,1.254-0.359
		c1.072-0.536,1.49-1.865,1.49-2.088c0-0.283-0.224-0.239-0.417-0.508c-0.209-0.312-0.104-0.433-0.237-0.611
		C384.599,283.08,384.401,283.08,384.134,283.049L384.134,283.049z M385.717,285.452c-0.327,0.387-0.671,1.044-0.671,1.716
		c0,0.806,0.492,1.478,1.253,1.478c0.729,0,1.074-0.627,1.074-1.27C387.373,286.376,386.461,285.675,385.717,285.452
		L385.717,285.452z M382.522,282.587c0,0-0.433,0.328-0.972,0.328c-0.642,0-1.149-0.478-1.149-1.148c0-0.463,0.238-0.938,0.791-1.18
		c-0.014,0.089-0.014,0.164-0.014,0.253C381.181,281.691,381.658,282.333,382.522,282.587L382.522,282.587z M409.066,291.27
		c0-0.299,0.268-0.553,0.564-0.553c0.328,0,0.582,0.254,0.582,0.553c0,0.342-0.254,0.582-0.582,0.582
		C409.334,291.852,409.066,291.611,409.066,291.27L409.066,291.27z M409.454,308.429c0.074,0,0.164,0.044,0.164,0.312
		c0,0.328-0.149,0.76-0.688,1.104c-0.373,0.252-0.881,0.462-1.627,0.479c0.119-0.358,0.209-0.73,0.209-1.089
		c0-0.12-0.014-0.211-0.027-0.345h0.191C408.857,308.891,409.364,308.429,409.454,308.429L409.454,308.429z M409.573,306.951
		c0.12-0.104,0.147-0.27,0.147-0.435v-0.344c0-0.432-0.653-0.688-1.551-0.688c-1.09,0-1.672,0.492-1.672,0.703v0.687
		c0,0.284,0.656,0.567,1.464,0.567C408.604,307.443,409.188,307.28,409.573,306.951L409.573,306.951z M410.35,307.115
		c-0.39,0.299-1.298,0.971-2.805,0.971c-0.807,0-1.164-0.253-1.284-0.253c-0.147,0-0.312,0.149-0.477,0.343
		c-0.358,0.418-0.821,1.193-0.821,2.043c0,0.6,0.463,1.195,1.328,1.195c2.792,0,4.879-1.747,4.879-3.163
		C411.17,307.443,410.692,307.115,410.35,307.115L410.35,307.115z M410.871,294.566c0,0.373,0.12,0.806,0.493,0.806
		c0.312,0,0.583-0.478,0.583-0.999c0-0.598-0.106-1.061-0.106-1.299c0-0.104,0.046-0.149,0.106-0.149
		c0.223,0.016,0.432,0.628,0.67,0.628c0.27,0,0.671-0.491,0.834-0.491c0.045,0,0.061,0.06,0.061,0.072
		c0,0.225-0.344,0.717-0.344,0.911c0,0.164,0.865,0.194,0.865,0.345c0,0.225-0.911,0.225-1.342,0.418
		c-0.418,0.178-0.672,0.401-0.672,0.699c0,0.299,0.299,0.358,0.717,0.358c0.999,0,1.701-0.538,1.924-0.538
		c0.045,0,0.075,0.03,0.075,0.075c0,0.149-0.508,0.643-0.508,0.865c0,0.254,0.926,0.551,0.909,0.701
		c-0.016,0.045-0.072,0.059-0.18,0.059c-0.163,0-0.417-0.043-0.61-0.043c-0.118,0-0.226,0.014-0.271,0.074
		c-0.104,0.119,0.03,0.91-0.179,0.91c-0.192,0-0.702-1.762-1.852-1.762c-0.164,0-0.282,0.136-0.282,0.358
		c0,0.596,0.581,1.283,1.134,1.609c0.253,0.165,0.671,0.329,0.671,0.42c0,0.178-0.954,0.014-0.954,0.312
		c0,0.271,0.119,0.672,0.119,0.911c0,0.074-0.017,0.164-0.104,0.164c-0.179,0-0.609-0.82-0.821-0.82
		c-0.178,0-0.564,0.492-0.729,0.492c-0.045,0-0.074-0.045-0.074-0.09c0-0.344,0.552-1.118,0.552-1.879
		c0-0.359-0.045-1.136-0.478-1.136c-0.358,0-0.761,0.566-0.94,1.136c-0.104,0.328-0.027,1.596-0.269,1.596
		c-0.224,0-0.165-0.852-0.463-0.852c-0.225,0-0.7,0.402-0.864,0.402c-0.03,0-0.06-0.015-0.06-0.045c0-0.179,0.432-0.761,0.432-0.88
		c0-0.225-0.985-0.253-0.985-0.434c0-0.104,0.39-0.18,0.746-0.238c0.763-0.135,1.88-0.688,1.88-1.463
		c0-0.864-0.836-1.236-1.387-1.596c-0.284-0.181-0.598-0.328-0.598-0.449c0-0.119,0.356-0.119,0.508-0.119
		c0.224,0,0.447-0.016,0.447-0.193c0-0.135-0.03-0.401-0.03-0.61c0-0.148,0.015-0.27,0.075-0.27c0.224,0,0.538,0.731,0.687,0.731
		c0.238,0,0.568-0.598,0.791-0.598c0.074,0,0.104,0.045,0.104,0.18C411.155,293.402,410.871,294.029,410.871,294.566
		L410.871,294.566z M403.755,290.195c0.165,1.269,1.866,0.627,1.866,2.162c0,0.226-0.062,0.554-0.062,0.836
		c0,0.328,0.029,0.611,0.283,0.611s0.313-0.18,0.313-0.419c0-0.237-0.062-0.534-0.062-0.698c0-0.523,0.373-0.645,0.598-0.645
		c0.566,0,1,0.583,1.853,0.583c-0.194,0.954-2.164,0.701-2.164,1.746c0,0.521,0.521,0.642,0.865,0.642
		c0.312,0,0.417-0.046,0.417-0.312c0-0.15-0.029-0.312-0.029-0.418c0-0.06,0.045-0.119,0.119-0.119c0.329,0,1.939,1.225,1.939,1.596
		c0,0.344-1.7,0.688-2.192,0.688c-0.149,0-0.179-0.104-0.179-0.164c0-0.104,0.253-0.418,0.253-0.599
		c0-0.135-0.226-0.225-0.821-0.225c-0.283,0-0.491,0.03-0.491,0.254c0,0.403,0.655,0.896,0.655,1.27
		c0,0.298-0.178,0.477-0.655,0.477c-0.4,0-1.015-0.312-1.015-0.835c0-0.417,0.434-0.836,0.434-1.089
		c0-0.075-0.061-0.194-0.238-0.194c-0.554,0-0.701,1.463-2.655,1.629c0.312-0.283,0.582-0.599,0.582-1.24
		c0-0.312-0.075-0.566-0.075-0.91c0-0.447,0.21-0.672,0.509-0.672c0.552,0,0.82,0.774,1.179,0.774c0.193,0,0.402-0.178,0.402-0.446
		c0-1.135-2.178-0.971-2.178-2.565C403.203,291.479,403.352,290.941,403.755,290.195L403.755,290.195z M406.59,299.895
		c0,0.209,0.15,0.373,0.357,0.373c0.236,0,0.389-0.209,0.389-0.447c0-0.312-0.284-0.746-0.552-0.746
		c-0.119,0-0.074,0.179-0.105,0.373C406.664,299.596,406.59,299.775,406.59,299.895L406.59,299.895z M405.814,297.91
		c1.565,0.298,2.417,1.478,2.417,2.581c0,0.761-0.479,1.461-1.313,1.461c-0.761,0-1.312-0.521-1.312-1.355
		c0-0.628,0.49-1.283,0.49-1.927C406.098,298.417,406.022,298.163,405.814,297.91L405.814,297.91z M403.83,300.445
		c0.147,0.15,0.193,0.3,0.193,0.447c0,0.226-0.104,0.463-0.104,0.717c0,0.355,0.269,0.67,0.656,0.67c0.417,0,0.7-0.327,0.7-0.715
		C405.276,300.998,404.694,300.445,403.83,300.445L403.83,300.445z M408.768,299.491c0.104,0.165,0.15,0.329,0.15,0.478
		c0,0.419-0.284,0.808-0.284,1.238c0,0.491,0.374,0.896,0.939,0.896c0.61,0,1.029-0.492,1.029-1.072
		C410.604,300.236,409.887,299.566,408.768,299.491L408.768,299.491z M404.188,298.7c0.688,0.089,0.853,0.327,0.853,0.521
		c0,0.329-0.298,0.434-0.583,0.434c-0.208,0-0.446-0.045-0.701-0.045c-0.328,0-0.655,0.074-0.925,0.389
		c0.193,0.029,0.478,0.164,0.478,0.463c0,0.865-2.4,0.148-2.4,2.372c0,1.182,1.225,2.461,3.072,2.461
		c0.953,0,1.565-0.312,1.565-0.67c0-0.284-0.508-0.091-0.508-0.328c0-0.104,0.18-0.3,0.18-0.464c0-0.074-0.06-0.209-0.18-0.209
		c-0.271,0-0.774,0.433-1.806,0.433c-0.807,0-1.597-0.463-1.597-1.09c0-0.135,0.062-0.21,0.148-0.21
		c0.091,0,0.209,0.062,0.312,0.062c0.093,0,0.104-0.062,0.104-0.227c0-0.162,0-0.627,0.284-0.627c0.28,0,0.818,1.046,2.879,1.046
		c0.688,0,2.015-0.134,2.507-0.583c-0.015,1.645-1.298,3.807-3.983,3.807c-2.79,0-4.28-2.237-4.28-4.297
		c0-2.283,1.862-4.355,4.417-4.355c0.653,0,1.208,0.226,1.208,0.507C405.231,298.477,404.262,298.236,404.188,298.7L404.188,298.7z
		 M393.386,283.422c0-0.254-0.06-0.312-0.119-0.312c-0.148,0-0.312,0.179-0.553,0.58c0.03,0.539,0.12,0.775,0.27,0.775
		C393.146,284.467,393.386,283.943,393.386,283.422L393.386,283.422z M391.342,284.034c0.165,0,0.373-0.179,0.763-0.611
		c0.028-0.193,0.028-0.373,0.028-0.597c0-0.299-0.118-0.627-0.299-0.627c-0.446,0-0.671,1.193-0.671,1.507
		C391.162,283.884,391.253,284.034,391.342,284.034L391.342,284.034z M393.772,285.361c0.373,0,0.791-1.432,0.791-2.327
		c0-0.194-0.028-0.403-0.119-0.403c-0.312,0-0.836,1.478-0.836,2.283C393.606,285.229,393.685,285.361,393.772,285.361
		L393.772,285.361z M390.117,284.542c0.508,0,1.091-2.745,1.091-3.208c0-0.12-0.046-0.209-0.148-0.209
		c-0.463,0-1.104,2.611-1.104,3.191C389.954,284.422,389.981,284.542,390.117,284.542L390.117,284.542z M391.744,285.675
		c-0.644,0-0.671,0.777-0.671,2.344c-0.479-1.029-1.27-2.134-2.193-2.134c-0.627,0-0.865,0.417-0.865,1.149
		c0,0.149,0.016,0.374,0.045,0.507c0.073-0.252,0.312-0.356,0.61-0.356c0.644,0,1.417,0.491,1.925,1.164
		c-0.582-0.104-1.148-0.209-1.627-0.209c-0.298,0-0.566,0.029-0.789,0.135c-0.434,0.192-1.017,0.836-1.017,1.807
		c0,0.148,0.017,0.312,0.045,0.492c0.521-1.164,1.91-1.688,2.806-1.688c0.18,0,0.312,0.016,0.418,0.03
		c-0.465,0.417-0.568,1.148-0.599,1.642c-0.017,0.236-0.104,0.254-0.269,0.254c0,0.489,0.388,1.223,0.388,1.596
		c0,0.134-0.075,0.253-0.147,0.283c0,0.654,0.654,1.133,0.654,1.552c0,0.104-0.027,0.194-0.074,0.239
		c0.047,0.269,0.764,0.729,0.852,0.924c0.149,0.313,0.255,0.344,0.328,0.344c0.254,0,0.656-0.298,0.656-0.565
		c0-0.092-0.074-0.195-0.134-0.24c-0.282-0.207-0.435-0.655-0.552-0.955c-0.104,0-0.239-0.061-0.283-0.209
		c-0.061-0.193-0.09-0.896-0.21-1.237c-0.192-0.045-0.283-0.119-0.283-0.521c0-0.193,0.119-0.955,0.119-1.225
		c-0.09,0-0.209-0.06-0.209-0.236c0-0.479,0.479-0.852,0.61-1.464c0.852,0.628,1.061,1.269,1.061,1.836
		c0,0.298-0.045,0.58-0.104,0.851c0.627-0.313,1.565-0.775,1.565-1.715c0-0.553-0.253-1.164-1.938-1.402
		c0.522-0.194,1.179-0.299,1.731-0.299c0.953,0,1.506,0.299,1.625,0.971c0.192-0.297,0.342-0.641,0.342-0.954
		c0-0.73-0.609-1.208-1.388-1.208c-0.909,0-1.716,0.478-2.582,1.06c0.39-0.806,0.657-1.283,1.136-1.283
		c0.074,0,0.148,0.015,0.224,0.029C392.772,286.316,392.104,285.675,391.744,285.675L391.744,285.675z M382.226,276.379
		c0,0.298-1.135,1.298-1.535,1.298c-0.149,0-0.194-0.18-0.194-0.343c0-0.299,0.134-0.717,0.299-0.852
		c0.194-0.178,0.642-0.269,0.985-0.269C381.985,276.216,382.226,276.26,382.226,276.379L382.226,276.379z M416.885,296.434
		c0.746,0,1.343,0.969,1.343,2.104c0,1.208-0.565,2.521-1.577,3.416c-0.018-2.014-2.479-1.372-2.479-2.835
		c0-0.625,0.447-1.043,0.985-1.043c0.478,0,0.851,0.134,1.119,0.403c-0.271-0.254-0.403-0.611-0.403-0.955
		C415.87,296.954,416.229,296.434,416.885,296.434L416.885,296.434z M405.814,281.169c-0.12-0.193-0.568-0.299-0.775-0.299
		c-0.657,0-1.104,0.463-1.194,0.88c-0.059-0.147-0.104-0.328-0.104-0.507c0-0.656,0.448-1.462,1.536-1.462
		c0.956,0,1.329,0.507,1.464,0.507c0.146,0,0.297-0.148,0.416-0.148c0.165,0,0.165,0.254,0.165,0.432c0,0.598-0.271,1.627-0.939,2
		c-0.12-0.254-0.356-0.536-0.747-0.715c-0.104-0.043-0.147-0.133-0.147-0.225C405.485,281.468,405.635,281.259,405.814,281.169
		L405.814,281.169z M403.561,282.259c0.391,0.373,0.73,0.537,1.148,0.537c0.164,0,0.358-0.045,0.463-0.045
		c0.135,0,0.227,0.061,0.227,0.165c0,0.165-0.15,0.435-0.329,0.582c0.179,0.075,0.373,0.104,0.582,0.104
		c0.851,0,1.818-0.537,1.818-1.879c0.181,0.236,0.284,0.729,0.284,0.952c0,1.626-1.193,2.255-2.298,2.255
		c-0.716,0-1.074-0.24-1.164-0.24c-0.283,0-0.269,0.566-0.462,0.553c-0.345-0.061-0.657-0.821-0.657-1.626
		C403.173,283.139,403.292,282.631,403.561,282.259L403.561,282.259z M393.19,277.917c0,0.522,1.865,3.073,2.225,3.073
		c0.298,0,0.521-0.522,0.521-0.971c0-0.119-0.029-0.238-0.09-0.328c-0.27-0.373-2.164-1.865-2.582-1.865
		C393.224,277.827,393.19,277.872,393.19,277.917L393.19,277.917z M414.721,276.691c0-1.059-2.532-1.326-2.532-1.565
		c0-0.193,1.413-0.521,2.146-0.538c-1.12-1.432-2.716-1.282-2.716-1.536c0-0.148,1.193-0.447,2.298-0.447
		c0.925,0,1.791,0.209,1.791,0.91c0,0.389-0.313,0.791-0.313,1.387c0,0.328,0.164,0.613,0.599,0.613
		c0.463,0,0.565-0.494,0.565-1.017c0-0.432-0.072-0.762-0.072-0.969c0-0.629,0.432-1.045,1.043-1.045
		c0.509,0,0.628,0.224,1.373,0.224c-0.403,0.239-0.554,0.672-0.554,0.88c0,0.627,0.404,1.062,0.404,2.345
		c0,2.355-2.209,3.191-4.911,3.191c-0.746,0-1.535-0.06-2.312-0.181c-0.12-0.016-0.149-0.045-0.149-0.118
		c0-0.194,1.062-0.3,1.062-1.253c0-0.375-0.12-0.731-0.12-0.866c0-0.075,0.061-0.12,0.12-0.12c0.226,0,0.671,0.866,1.507,0.866
		C414.169,277.455,414.721,277.379,414.721,276.691L414.721,276.691z M417.241,275.186c0,1.33-0.968,2.344-2.713,2.627
		c0.19,0.016,0.372,0.016,0.552,0.016c2.043,0,2.79-0.926,2.79-1.701C417.869,275.693,417.63,275.307,417.241,275.186
		L417.241,275.186z M415.826,287.184c0-0.313-0.79-0.346-0.866-1.226c-0.015-0.134-0.06-0.373-0.224-0.373
		c-0.271,0-0.062,0.82-0.358,0.82c-0.688,0-0.91-1.342-1.164-1.342c-0.06,0-0.135,0.045-0.135,0.224c0,0.164,0.03,0.27,0.03,0.462
		c0,0.193-0.049,0.329-0.225,0.329c-0.402,0-0.761-0.939-1.104-0.939c-0.074,0-0.148,0.045-0.148,0.118
		c0,0.181,0.298,0.509,0.298,0.671c0,0.358-0.971,0.165-0.971,0.463c0,0.135,0.135,0.181,0.314,0.181
		c0.312,0,0.806-0.136,1.059-0.136c0.149,0,0.374,0.029,0.374,0.225c0,0.21-0.538,0.479-0.538,0.672c0,0.09,0.091,0.134,0.164,0.134
		c0.403,0,1.118-0.699,1.626-0.699c0.09,0,0.312,0.043,0.312,0.178c0,0.193-0.508,0.537-0.508,0.82c0,0.074,0.046,0.166,0.136,0.166
		c0.27,0,0.628-0.701,1.135-0.701c0.192,0,0.478,0.074,0.627,0.074C415.781,287.302,415.826,287.227,415.826,287.184
		L415.826,287.184z M405.143,275.798c0-0.164-0.582-0.478-0.582-0.654c0-0.031,0.03-0.045,0.073-0.045
		c0.165,0,0.448,0.06,0.672,0.06c0.193,0,0.226-0.835,0.373-0.835c0.104,0,0.283,0.791,0.448,0.791c0.193,0,0.551-0.225,0.7-0.225
		c0.03,0,0.06,0.016,0.06,0.045c0,0.104-0.373,0.508-0.373,0.627c0,0.135,0.836,0.297,0.836,0.418c0,0.147-0.85,0.133-0.85,0.268
		c0,0.105,0.312,0.523,0.312,0.656c0,0.029-0.017,0.046-0.047,0.046c-0.117,0-0.581-0.209-0.716-0.209
		c-0.164,0-0.432,0.612-0.565,0.612c-0.045,0-0.074-0.062-0.074-0.137l-0.029-0.597c0-0.061-0.03-0.119-0.104-0.119
		c-0.18,0-0.522-0.016-0.627-0.016c-0.073,0-0.104-0.014-0.104-0.045C404.546,276.32,405.143,275.902,405.143,275.798
		L405.143,275.798z M408.052,278.633c-1.045,0-1.729-0.521-1.729-0.791c0-0.134,0.09-0.224,0.208-0.224
		c0.329,0,1.045,0.506,1.284,0.506c0.06,0,0.104-0.029,0.104-0.119c0-0.269-0.254-0.716-0.254-0.939c0-0.06,0.045-0.104,0.135-0.104
		c0.403,0,1,0.165,1.312,0.165c0.104,0,0.135-0.06,0.135-0.119c0-0.328-0.971-0.971-0.971-1.165c0-0.179,1.208-0.446,1.208-0.729
		c0-0.299-1.643-0.09-1.643-0.373c0-0.209,0.312-0.567,0.312-0.731c0-0.074-0.062-0.104-0.164-0.104
		c-0.135,0-0.853,0.283-1.149,0.283c-0.148,0-0.329-0.029-0.329-0.238c0-0.344,0.582-0.717,1.493-0.717
		c1.478,0,2.356,1.016,2.356,2.717C410.364,278.096,408.857,278.633,408.052,278.633L408.052,278.633z M397.951,304.445
		c0,0.133-0.045,0.283-0.164,0.432c-0.164-0.299-0.627-0.446-0.834-0.446c-1.538,0-0.956,2.223-2.599,2.223
		c-0.687,0-0.746-0.089-0.998-0.089c-0.104,0-0.166,0.045-0.166,0.133c0,0.389,0.553,1.345,2.088,1.345
		c1.541,0,3.016-0.941,3.016-2.104c0-0.192-0.045-0.402-0.135-0.61c0.061-0.091,0.21-0.149,0.343-0.149
		c0.239,0,0.374,0.271,0.597,0.271c0.238,0,0.417-0.181,0.417-0.417c0-0.194-0.104-0.329-0.284-0.42
		c0.121-0.088,0.211-0.237,0.211-0.4c0-0.255-0.182-0.493-0.479-0.493c-0.135,0-0.224,0.047-0.328,0.149
		c-0.029-0.27-0.179-0.521-0.463-0.521c-0.224,0-0.388,0.164-0.388,0.419C397.787,303.998,397.951,304.191,397.951,304.445
		L397.951,304.445z M393.938,305.014c-0.446,0-1.117-0.479-1.117-0.748c0-0.225,0.209-0.345,0.373-0.345
		c0.373,0,1.043,0.465,1.043,0.853C394.235,304.878,394.161,305.014,393.938,305.014L393.938,305.014z M389.772,301.668
		c1.194,0.299,1.791,0.941,1.91,1.702c0.119,0.729,0.271,1.329,0.553,1.627c0.373,0.417,1.104,0.79,1.746,0.79
		c0.537,0,0.972-0.178,0.972-0.67c0-0.538-0.729-1.747-1.808-1.747c-0.104,0-0.237,0.015-0.388,0.015
		c-0.135,0-0.329-0.028-0.448-0.134c-0.237-0.209-0.312-1.329-0.761-1.999c-0.491-0.746-1.028-0.955-1.76-0.955
		c-0.522,0-1.104,0.283-1.104,0.702C388.687,301.252,388.819,301.43,389.772,301.668L389.772,301.668z M397.265,299.85
		c0-0.672-1.387-0.688-1.387-1.701c0-0.254,0.164-0.688,0.492-1.15c0.133,0.777,0.449,1.181,1.118,1.435
		c1.328,0.49,1.508,1.236,1.508,2.029c0,1.341-0.94,3.014-3.356,3.014c-1.939,0-3.328-1.73-3.328-3.191
		c0-0.403,0.104-0.852,0.357-0.852c0.225,0,0.298,0.18,0.479,0.357c0.67,0.671,1.4,0.852,2.461,0.852
		C396.564,300.641,397.265,300.253,397.265,299.85L397.265,299.85z M397.324,300.925c-0.521,0.208-0.715,0.192-0.715,0.715
		c0,0.192-0.045,0.447-0.045,0.582c0,0.18,0.028,0.283,0.237,0.283c0.536,0,1.389-0.91,1.389-1.687c0-0.209-0.119-0.299-0.253-0.299
		C397.817,300.521,397.683,300.76,397.324,300.925L397.324,300.925z M392.563,293.389c0-0.955,2.271-1.464,2.271-2.642
		c0-0.192-0.074-0.537-0.21-0.791c0.791,0.435,1.373,1.165,1.373,1.76c0,1.031-1.074,1.509-1.074,2.149
		c0,0.745,1.148,0.866,1.148,1.791c0,0.761-1.09,1.641-1.09,2.626c0,0.76,0.535,1.387,1.356,1.492
		c-0.269,0.06-0.508,0.104-0.761,0.104c-1.508,0-3.059-1.237-3.059-2.716c0-0.729,0.312-1.373,0.791-1.835
		c0.416,0.357,0.834,0.597,1.103,0.597c0.239,0,0.344-0.119,0.344-0.299C394.759,295.074,392.563,294.566,392.563,293.389
		L392.563,293.389z"/>
	<path d="M395.644,325.308c0.422,0,1.146-0.137,1.717-1.051c-0.327-0.725-0.561-2.188-0.594-2.722
		c-0.167-2.727,0.885-5.287,2.032-5.357c0.843-0.051,1.519,0.747,1.593,2.036c0.208,3.397-0.925,4.814-1.487,6.035
		c0.095,0.477,0.896,1.283,1.656,1.283c0.281,0,0.619-0.142,0.704-0.254c-0.058-0.194-0.112-0.448-0.112-0.814
		c0-1.967,1.268-3.627,2.361-3.627c0.872,0,1.376,1.151,1.376,1.913c0,0.898-0.759,1.631-1.883,2.333
		c0.198,0.195,0.562,0.337,0.873,0.337c1.604,0,2.444-1.938,3.064-3.714c0.109-0.337,0.311-0.814,0.7-0.814
		c0.678,0,0.959,4.442,2.081,4.442c0.479,0,0.87-0.984,0.87-1.742c0-0.562-0.193-0.619-0.193-1.435c0-0.898,0.478-1.658,1.126-1.658
		c0.392,0,0.532,0.393,0.532,0.87c0,1.801-1.293,5.146-3.205,5.146c-1.436,0-1.322-2.477-1.826-2.477
		c-0.564,0-1.354,2.507-4.136,2.507c-0.45,0-0.93-0.226-1.319-0.678c-0.675,0.452-1.239,0.647-1.889,0.647
		c-1.039,0-1.488-1.068-1.909-1.068c-0.509,0-1.068,1.099-2.758,1.099c-1.351,0-1.574-1.8-2.052-1.8c-0.421,0-1.069,1.8-1.771,1.8
		c-1.184,0-1.436-3.122-2.477-3.122c-0.814,0-3.393,3.17-4.092,3.099c-0.279-0.029-0.398-0.238-0.37-0.521
		c0.04-0.389,0.373-1.43,0.511-1.923c0.229-0.854,0.437-1.793,0.553-2.092c0.115-0.303,0.429-0.519,0.678-0.493
		c0.126,0.013,0.164,0.248,0.204,0.439c0.142,0.698,0.341,1.406,0.563,1.406c0.395,0,1.699-2.504,2.459-2.504
		c0.928,0,1.041,3.938,2.305,3.938c0.423,0,0.734-0.509,1.014-1.125c0.029-1.043,0.311-2.53,1.152-2.53
		c0.592,0,0.873,1.317,0.451,2.475C394.151,324.97,395.051,325.308,395.644,325.308L395.644,325.308z M416.619,322.666
		c0-0.703-0.646-1.688-1.604-1.688c-1.266,0-2.501,1.38-2.501,3.29c0,1.717,1.066,2.279,2.137,2.279c1.854,0,2.98-1.521,3.569-2.786
		c0.282,0.847,0.449,2.786,1.153,2.786c0.281,0,0.478-0.142,0.816-0.899c0.843-1.887,1.654-4.051,2.781-4.051
		c0.421,0,0.169,0.761,1.183,0.761c0.478,0,0.812-0.395,0.812-0.847c0-0.646-0.59-1.151-1.49-1.151
		c-2.642,0-3.201,3.967-3.627,3.967c-0.701,0-0.478-3.177-0.983-3.177c-0.45,0-0.675,0.533-0.73,0.785
		c-0.366,1.465-1.403,3.572-2.979,3.572c-0.365,0-1.014-0.142-1.014-0.507C414.145,324.605,416.619,324.551,416.619,322.666
		L416.619,322.666z M399.482,318.973c-0.05-0.782-0.239-1.139-0.66-1.108c-0.562,0.034-0.818,1.795-0.706,3.646
		c0.073,1.209,0.252,1.396,0.421,1.384C398.848,322.874,399.59,320.716,399.482,318.973L399.482,318.973z M394.91,317.324
		c-0.028-0.451-0.394-0.76-0.871-0.76c-0.535,0-1.042,0.562-0.981,1.265c0,0.421,0.309,0.844,0.844,0.844
		C394.519,318.673,394.968,317.971,394.91,317.324L394.91,317.324z M403.657,323.059c0-0.477-0.255-0.872-0.563-0.872
		c-0.254,0-0.844,0.28-0.844,1.183c0,0.703,0.252,1.039,0.367,1.183C403.431,324.296,403.657,323.621,403.657,323.059
		L403.657,323.059z M414.65,322.103c0.59,0,0.761,0.701,0.618,1.124c-0.142,0.423-0.646,0.899-1.435,1.039
		C413.667,323.844,413.582,322.103,414.65,322.103L414.65,322.103z M375.976,322.554c-0.029-1.152,0.027-2.308,0.508-3.938
		c0.252-0.871,0.479-1.183,1.264-1.351c0.619-0.11,0.562,0.532,0.423,1.292c-0.31,1.688-0.45,2.503-0.337,4.414
		c0.109,2.024,1.041,2.812,2.052,2.812c1.519,0.029,2.193-1.236,2.474-3.065c0.227-1.462,0.057-2.167-0.086-2.612
		c-0.082-0.255-0.309-0.816-0.393-1.236c-0.111-1.07,0.393-1.573,0.816-1.715c0.506-0.144,0.705,0.11,0.898,0.703
		c0.254,0.898,0.281,2.079,0.197,3.766c-0.111,2.305-1.268,5.091-4.134,5.033C377.185,326.603,376.089,324.999,375.976,322.554
		L375.976,322.554z"/>
</g>
</svg>
